<?xml version="1.0" encoding="UTF-8"?>
<svg version="1.1" xmlns="http://www.w3.org/2000/svg" width="784" height="822">
<path d="M0 0 C1.26166992 0.18997559 1.26166992 0.18997559 2.54882812 0.38378906 C16.32797863 2.52733685 16.32797863 2.52733685 19 6 C18.00484375 5.9278125 17.0096875 5.855625 15.984375 5.78125 C-11.60058159 3.88971012 -44.45282748 3.15094249 -71 12 C-72.3650889 14.10698505 -73.571395 16.16753197 -74.75 18.375 C-75.45736347 19.65880653 -76.16703123 20.94134589 -76.87890625 22.22265625 C-77.23355957 22.86219238 -77.58821289 23.50172852 -77.95361328 24.16064453 C-79.91128808 27.6018769 -82.08767173 30.90010613 -84.26171875 34.20703125 C-86.17723943 37.28477797 -87.91494324 40.43591921 -89.66333008 43.6105957 C-91.85237395 47.52368654 -94.17875471 51.3518573 -96.5 55.1875 C-100.84456152 62.3979691 -105.15905822 69.62509426 -109.4375 76.875 C-109.96972168 77.77686035 -110.50194336 78.6787207 -111.05029297 79.60791016 C-112.13868983 81.45285564 -113.22690442 83.29790866 -114.31494141 85.14306641 C-117.24906356 90.11772555 -120.18711684 95.09006141 -123.125 100.0625 C-123.66954834 100.98466309 -124.21409668 101.90682617 -124.77514648 102.85693359 C-125.28505127 103.72012207 -125.79495605 104.58331055 -126.3203125 105.47265625 C-126.78985352 106.27082764 -127.25939453 107.06899902 -127.74316406 107.89135742 C-128.75490613 109.58879648 -129.80512471 111.26327098 -130.8671875 112.9296875 C-132.22341376 115.40830791 -132.18716511 117.09264445 -131.65625 119.84375 C-130.4810371 123.70516381 -128.81693532 127.36137273 -127.15625 131.03515625 C-122.10991522 143.97491335 -124.40598264 160.24035535 -129 173 C-136.12078284 187.95931036 -148.0752241 196.74316511 -163.3046875 202.1796875 C-167.92305745 203.20490704 -172.22680874 203.21813914 -176.9375 203.125 C-177.81212891 203.11597656 -178.68675781 203.10695313 -179.58789062 203.09765625 C-181.72538064 203.0742957 -183.86272786 203.03843247 -186 203 C-186.27312012 203.72437256 -186.54624023 204.44874512 -186.82763672 205.19506836 C-187.96377291 207.91332508 -189.26202538 210.34344983 -190.7578125 212.87890625 C-191.29744629 213.79526855 -191.83708008 214.71163086 -192.39306641 215.65576172 C-193.25037354 217.09459717 -193.25037354 217.09459717 -194.125 218.5625 C-194.70813965 219.54234863 -195.2912793 220.52219727 -195.89208984 221.53173828 C-206.14046119 238.66152365 -206.14046119 238.66152365 -209 242 C-209.99 242 -210.98 242 -212 242 C-213.39233398 240.40258789 -213.39233398 240.40258789 -214.80859375 238.16015625 C-215.59145752 236.92483154 -215.59145752 236.92483154 -216.39013672 235.66455078 C-219.0275468 231.29926513 -221.56661447 226.88500699 -224.0625 222.4375 C-225.55972947 219.77852782 -227.06068961 217.12271943 -228.5847168 214.47900391 C-229.50219912 212.87194586 -230.39360177 211.24960317 -231.25317383 209.61083984 C-233.67908637 205.14483555 -233.67908637 205.14483555 -238.12890625 202.921875 C-239.26199219 202.86515625 -240.39507812 202.8084375 -241.5625 202.75 C-256.33476233 201.37619504 -268.42689747 195.51481672 -278 184 C-288.17611522 170.58994986 -290.62473978 156.45172614 -289 140 C-287.99585481 133.71223526 -286.42150868 127.54237645 -283.30078125 121.9609375 C-281.69360313 118.30255607 -281.83419474 116.79733249 -283 113 C-284.28441162 110.54640844 -285.58566776 108.26608097 -287.0625 105.9375 C-287.46734619 105.28193115 -287.87219238 104.6263623 -288.28930664 103.95092773 C-289.12145725 102.60508384 -289.95763658 101.26172251 -290.79785156 99.92089844 C-292.53306772 97.14821754 -294.23218699 94.35364497 -295.9375 91.5625 C-298.06701569 88.10888941 -300.20873274 84.66357637 -302.37109375 81.23046875 C-303.20595109 79.90378546 -304.04058306 78.57696032 -304.875 77.25 C-305.28935303 76.5912085 -305.70370605 75.93241699 -306.13061523 75.25366211 C-309.80543422 69.37805609 -313.31916465 63.41289835 -316.77685547 57.40722656 C-319.05938808 53.46022064 -319.05938808 53.46022064 -322 50 C-324.7015991 49.91304027 -327.31236623 49.94116214 -330.0078125 50.04296875 C-331.65099662 50.06653507 -333.29423392 50.0866035 -334.9375 50.10351562 C-337.52757575 50.13608749 -340.11026977 50.18686691 -342.69824219 50.2980957 C-354.13320559 50.75790853 -354.13320559 50.75790853 -359 49 C-362.9824926 45.21230899 -364.85884284 41.00222237 -367 36 C-368.02262348 34.22178871 -369.07112002 32.45804467 -370.15234375 30.71484375 C-371.08249349 29.12342573 -372.01092331 27.53100102 -372.9375 25.9375 C-373.41767578 25.12345703 -373.89785156 24.30941406 -374.39257812 23.47070312 C-374.84955078 22.68501953 -375.30652344 21.89933594 -375.77734375 21.08984375 C-376.38437134 20.05138306 -376.38437134 20.05138306 -377.00366211 18.99194336 C-378.00246489 16.99507204 -378.4946498 15.16523543 -379 13 C-366.12791353 12.34802957 -353.25980776 11.85225438 -340.37451267 11.54925919 C-334.38847948 11.40372087 -328.41381074 11.20696823 -322.43432617 10.88769531 C-282.57548031 8.81391548 -282.57548031 8.81391548 -274.20330811 15.67144775 C-268.14489738 21.78562259 -264.99147513 29.53400338 -262.24798584 37.5645752 C-260.43575628 42.55323628 -257.79017602 46.88485146 -255 51.375 C-254.13795604 52.86675688 -253.28037067 54.36111049 -252.4296875 55.859375 C-249.76658266 60.45211145 -246.90536391 64.90427042 -243.99902344 69.34570312 C-241.96325703 72.46535248 -240.03920944 75.60774798 -238.25 78.875 C-237.87230469 79.56207031 -237.49460937 80.24914062 -237.10546875 80.95703125 C-236.32212987 82.40468579 -235.55552066 83.86145018 -234.80078125 85.32421875 C-233.65183254 87.40102509 -232.57724361 89.22676754 -231 91 C-227.95548377 92.08353746 -227.95548377 92.08353746 -225 91 C-222.24473914 87.8917925 -219.91772463 84.4983658 -217.54956055 81.08984375 C-213.36548569 75.07838431 -208.98552575 69.49576609 -203.9765625 64.1328125 C-202.24839301 62.26802882 -200.64405485 60.36350464 -199.0625 58.375 C-198.381875 57.59125 -197.70125 56.8075 -197 56 C-196.34 56 -195.68 56 -195 56 C-194.73832031 55.40445313 -194.47664062 54.80890625 -194.20703125 54.1953125 C-192.04103347 50.25586022 -188.44745703 47.80644549 -185 45 C-184.0925 44.25621094 -183.185 43.51242187 -182.25 42.74609375 C-174.36057407 36.47681779 -166.04263535 31.06631402 -157.48046875 25.76171875 C-156.36333496 25.0648999 -156.36333496 25.0648999 -155.22363281 24.35400391 C-153.74091332 23.45115341 -152.23963637 22.57810085 -150.72167969 21.73583984 C-146.10235847 19.10501649 -144.34987343 17.54808903 -142.875 12.25 C-141.4140625 9.31640625 -141.4140625 9.31640625 -139 7 C-134.84782939 5.95533263 -130.59705479 6.17550909 -126.34277344 6.21337891 C-118.55119589 6.2372949 -111.66216487 5.05389985 -104.125 3.125 C-91.81246916 0.04778095 -79.63013171 -1.82376575 -67 -3 C-66.21254395 -3.07589355 -65.42508789 -3.15178711 -64.61376953 -3.22998047 C-43.0501372 -5.19459368 -21.34259906 -3.22225337 0 0 Z M-159 33 C-160.01707031 33.64839844 -161.03414063 34.29679687 -162.08203125 34.96484375 C-197.75437808 58.09004933 -222.27421808 91.54019515 -237 131 C-237.36867188 131.95777344 -237.73734375 132.91554688 -238.1171875 133.90234375 C-240.43683577 140.31284459 -241.93403477 146.83582951 -243.3125 153.5 C-243.49635254 154.37358154 -243.68020508 155.24716309 -243.86962891 156.1472168 C-244.03253418 156.97519775 -244.19543945 157.80317871 -244.36328125 158.65625 C-244.58431519 159.76709961 -244.58431519 159.76709961 -244.80981445 160.90039062 C-245.01808214 163.19962307 -244.73301382 164.82027184 -244 167 C-242.87465895 168.35618499 -242.87465895 168.35618499 -239.9375 168.0625 C-238.4834375 168.0315625 -238.4834375 168.0315625 -237 168 C-236.8548999 167.27635254 -236.7097998 166.55270508 -236.56030273 165.80712891 C-229.81912077 132.67108137 -217.18929217 99.66672218 -193.43359375 74.70703125 C-191.78563004 73.11626842 -191.78563004 73.11626842 -192 71 C-191.01 70.67 -190.02 70.34 -189 70 C-188.443125 69.29875 -187.88625 68.5975 -187.3125 67.875 C-184.85768968 64.82307366 -182.22695683 62.47486935 -179.25390625 59.9453125 C-177.71411268 58.61633989 -176.20180593 57.25501887 -174.71484375 55.8671875 C-164.56079608 46.39007634 -152.94927611 39.01248598 -141 32 C-139.94296875 31.37609375 -138.8859375 30.7521875 -137.796875 30.109375 C-111.31434749 15.23562667 -83.68802788 7.89917047 -54 3 C-54 2.67 -54 2.34 -54 2 C-90.1290407 0.21991953 -129.03434507 13.39379044 -159 33 Z M-135 12 C-135 12.66 -135 13.32 -135 14 C-133.68 13.34 -132.36 12.68 -131 12 C-132.32 12 -133.64 12 -135 12 Z M-86.25 13.9375 C-87.18328125 14.11152344 -88.1165625 14.28554688 -89.078125 14.46484375 C-93.60007991 16.8406837 -95.45715014 20.68096165 -98 25 C-98.47840332 25.79011475 -98.95680664 26.58022949 -99.44970703 27.39428711 C-100.96579917 29.91813461 -102.45390354 32.45692545 -103.9375 35 C-109.43782288 44.37053402 -115.00785076 53.69688838 -120.60961914 63.00708008 C-124.64050124 69.71369262 -128.62844419 76.44287769 -132.54858398 83.21484375 C-134.4961716 86.55190679 -136.51273558 89.80808724 -138.6796875 93.0078125 C-139.11104004 93.64952393 -139.54239258 94.29123535 -139.98681641 94.95239258 C-140.80524459 96.15757316 -141.63751964 97.35351171 -142.48583984 98.5378418 C-144.5957767 101.5456093 -144.5957767 101.5456093 -144.609375 105.07421875 C-142.34226961 107.78704146 -139.78527219 109.82022176 -137 112 C-136.14341797 110.54207031 -136.14341797 110.54207031 -135.26953125 109.0546875 C-133.02241118 105.23113789 -130.77262217 101.40916284 -128.52246094 97.58740234 C-127.52231861 95.88767361 -126.52294554 94.18749196 -125.52441406 92.48681641 C-118.51805813 80.55390053 -111.4044815 68.69114125 -104.20733643 56.87271118 C-99.07197006 48.43865372 -93.99467989 39.97491994 -89.01953125 31.4453125 C-86.78057561 27.62566283 -84.48570343 23.84317182 -82.15625 20.078125 C-80.88046814 17.78516571 -79.9261695 15.45263405 -79 13 C-81.52654162 13 -83.77382264 13.41993834 -86.25 13.9375 Z M-370 18 C-369.37498605 19.68272986 -368.69822617 21.34630643 -368 23 C-367.61368408 23.91550629 -367.22736816 24.83101257 -366.8293457 25.77426147 C-365.12396178 28.33243315 -365.12396178 28.33243315 -361.77416992 28.61904907 C-360.42646514 28.64213821 -359.07812323 28.63767539 -357.73046875 28.61181641 C-356.99357819 28.61748123 -356.25668762 28.62314606 -355.49746704 28.62898254 C-353.06029517 28.6424937 -350.62460709 28.62153569 -348.1875 28.6015625 C-346.49502542 28.60706064 -344.80255749 28.6151834 -343.11010742 28.62582397 C-338.65263708 28.64873806 -334.19565658 28.64447795 -329.73815918 28.63201904 C-322.60320379 28.61372918 -315.46853529 28.62360479 -308.33364868 28.65787888 C-305.83899332 28.66399752 -303.34494917 28.65070479 -300.8503418 28.63589478 C-299.32340333 28.63884215 -297.796466 28.64249646 -296.26953125 28.64697266 C-295.57437408 28.63768234 -294.87921692 28.62839203 -294.16299438 28.61882019 C-289.46573067 28.65785491 -289.46573067 28.65785491 -287.1555481 30.35501099 C-285.43065263 32.81049865 -283.85273593 35.3189993 -282.3046875 37.890625 C-281.95593567 38.46730927 -281.60718384 39.04399353 -281.24786377 39.63815308 C-280.11945124 41.50631664 -278.99718958 43.37809303 -277.875 45.25 C-277.09787234 46.5391282 -276.32036474 47.82802743 -275.54248047 49.11669922 C-273.35623676 52.74122938 -271.17730541 56.37009348 -269 60 C-268.50564453 60.82338867 -268.01128906 61.64677734 -267.50195312 62.49511719 C-265.71114056 65.47839024 -263.92277803 68.46309606 -262.13671875 71.44921875 C-257.80829718 78.66325471 -253.3958566 85.82694801 -249 93 C-244.05 92.505 -244.05 92.505 -239 92 C-239.56009805 88.49251951 -240.40220982 85.92788981 -242.265625 82.91015625 C-242.97223267 81.7512085 -242.97223267 81.7512085 -243.69311523 80.56884766 C-244.20688721 79.74175293 -244.72065918 78.9146582 -245.25 78.0625 C-246.35106769 76.25960736 -247.45129926 74.45620386 -248.55078125 72.65234375 C-249.40663818 71.25411377 -249.40663818 71.25411377 -250.27978516 69.82763672 C-253.04279386 65.28588724 -255.74016375 60.70595553 -258.4375 56.125 C-259.51686666 54.29553727 -260.59629428 52.4661105 -261.67578125 50.63671875 C-262.2167041 49.71938965 -262.75762695 48.80206055 -263.31494141 47.85693359 C-266.24906356 42.88227445 -269.18711684 37.90993859 -272.125 32.9375 C-272.66954834 32.01533691 -273.21409668 31.09317383 -273.77514648 30.14306641 C-274.54000366 28.84828369 -274.54000366 28.84828369 -275.3203125 27.52734375 C-275.76648926 26.77187256 -276.21266602 26.01640137 -276.67236328 25.23803711 C-277.1104834 24.49948486 -277.54860352 23.76093262 -278 23 C-278.34685349 22.14054779 -278.69370697 21.28109558 -279.05107117 20.39559937 C-280.89019853 17.59202752 -280.89019853 17.59202752 -284.73954773 17.39872742 C-286.3298378 17.38421107 -287.92052242 17.39757762 -289.51049805 17.43237305 C-290.37900391 17.43164291 -291.24750977 17.43091278 -292.14233398 17.43016052 C-295.01609528 17.43364696 -297.88824028 17.47255738 -300.76171875 17.51171875 C-302.75282404 17.52104313 -304.74394079 17.52816101 -306.73506165 17.53315735 C-311.97803366 17.55225662 -317.2203141 17.60138293 -322.4630127 17.65667725 C-327.81183516 17.70780644 -333.16076928 17.73065787 -338.50976562 17.75585938 C-349.00681443 17.8094986 -359.50334973 17.89484704 -370 18 Z M-121.11328125 27.5703125 C-123.91696455 30.698951 -125.79292567 34.38857504 -127.77734375 38.0703125 C-130.79795078 43.64040581 -133.88219959 49.17131649 -137 54.6875 C-137.54817383 55.65993652 -138.09634766 56.63237305 -138.66113281 57.63427734 C-141.69873114 63.00367404 -144.77982295 68.34333246 -147.921875 73.65234375 C-148.56125 74.73491455 -149.200625 75.81748535 -149.859375 76.93286133 C-151.09775585 79.02374842 -152.34232767 81.110984 -153.59375 83.1940918 C-154.15578125 84.14324463 -154.7178125 85.09239746 -155.296875 86.0703125 C-155.79541992 86.90320801 -156.29396484 87.73610352 -156.80761719 88.59423828 C-158.28963454 91.32262419 -158.28963454 91.32262419 -159 96 C-156.03 97.65 -153.06 99.3 -150 101 C-144.23905452 93.11000946 -139.31537531 84.88688393 -134.42285156 76.44824219 C-131.88387007 72.07952112 -129.31813178 67.72663181 -126.75 63.375 C-126.21173584 62.46258545 -125.67347168 61.5501709 -125.11889648 60.61010742 C-120.37353753 52.5882409 -115.53731226 44.62301626 -110.66894531 36.67529297 C-104.94836738 28.77363156 -104.94836738 28.77363156 -102 20 C-108.03879284 20 -116.29109215 23.9870962 -121.11328125 27.5703125 Z M-132 32 C-133.89880796 33.07811106 -135.79391978 34.16273319 -137.6875 35.25 C-139.27111328 36.15492188 -139.27111328 36.15492188 -140.88671875 37.078125 C-145.89715431 40.17114168 -149.3015124 42.90545346 -152.12890625 48.12109375 C-152.68368652 49.12962402 -153.2384668 50.1381543 -153.81005859 51.17724609 C-154.38836426 52.25312988 -154.96666992 53.32901367 -155.5625 54.4375 C-156.79443681 56.68942397 -158.02753116 58.94071505 -159.26171875 61.19140625 C-159.88095215 62.32594238 -160.50018555 63.46047852 -161.13818359 64.62939453 C-162.91578579 67.84753981 -164.73555907 71.03580261 -166.58203125 74.21484375 C-167.13753662 75.17140869 -167.69304199 76.12797363 -168.26538086 77.11352539 C-169.32055046 78.92378223 -170.37981781 80.73165814 -171.44360352 82.53686523 C-171.91338623 83.34712158 -172.38316895 84.15737793 -172.8671875 84.9921875 C-173.28081543 85.69714355 -173.69444336 86.40209961 -174.12060547 87.12841797 C-175.21263125 89.1078873 -175.21263125 89.1078873 -175 92 C-171.7 92.33 -168.4 92.66 -165 93 C-164.29617188 91.7625 -163.59234375 90.525 -162.8671875 89.25 C-157.20452079 79.30826942 -151.50637702 69.38780033 -145.75 59.5 C-145.16130127 58.48719971 -144.57260254 57.47439941 -143.96606445 56.4309082 C-141.46743938 52.14960957 -138.95721842 47.88484501 -136.30078125 43.69921875 C-135.9150293 43.09078125 -135.52927734 42.48234375 -135.13183594 41.85546875 C-134.15227285 40.32752926 -133.15698339 38.80970162 -132.16015625 37.29296875 C-131.58587891 36.15794922 -131.58587891 36.15794922 -131 35 C-131.495 33.515 -131.495 33.515 -132 32 Z M-361 34 C-360.18957164 35.48030272 -359.37659652 36.95921142 -358.5625 38.4375 C-358.11003906 39.26121094 -357.65757812 40.08492188 -357.19140625 40.93359375 C-356.16337603 42.92308798 -356.16337603 42.92308798 -355 44 C-353.30172124 44.0341561 -351.60199384 43.99856516 -349.90454102 43.93554688 C-343.78532532 43.73926198 -337.6700274 43.63778236 -331.5480957 43.56884766 C-328.90648743 43.5232162 -326.26520725 43.44899959 -323.62524414 43.34521484 C-302.25104481 42.5427934 -302.25104481 42.5427934 -296.86083984 46.61682129 C-293.47414876 50.562736 -291.56410101 54.93920134 -289.85025024 59.80529785 C-288.4645193 63.3822056 -286.42230468 66.52150473 -284.375 69.75 C-283.63277934 70.97757594 -282.8928505 72.2065435 -282.15625 73.4375 C-276.55749208 82.70163181 -270.8350546 91.88272719 -265 101 C-261.37 99.35 -257.74 97.7 -254 96 C-255.68360304 91.79099239 -257.58953603 88.14513821 -259.9375 84.3125 C-260.3286499 83.66748535 -260.7197998 83.0224707 -261.12280273 82.35791016 C-262.41118624 80.23613437 -263.70531275 78.11793433 -265 76 C-265.91939968 74.49096391 -266.83866849 72.98184808 -267.7578125 71.47265625 C-271.25675543 65.73402378 -274.75822682 59.99700157 -278.30078125 54.28515625 C-281.68070727 48.83017207 -284.98363105 43.37700302 -287.9921875 37.70703125 C-289.00604069 35.82768302 -289.00604069 35.82768302 -291 34 C-294.03699433 33.70599437 -294.03699433 33.70599437 -297.65283203 33.77294922 C-298.67739502 33.77251114 -298.67739502 33.77251114 -299.72265625 33.77206421 C-301.98450341 33.77345961 -304.24602276 33.78903033 -306.5078125 33.8046875 C-308.07436951 33.80841689 -309.64092884 33.81126421 -311.20748901 33.81326294 C-315.33394797 33.82090524 -319.46026651 33.84055876 -323.58666992 33.8626709 C-327.79604187 33.88311654 -332.00543648 33.8922619 -336.21484375 33.90234375 C-344.476627 33.92380417 -352.73829604 33.95794721 -361 34 Z M-314 49 C-312.39447937 53.46454934 -310.10733579 57.44046027 -307.6875 61.5 C-307.25381104 62.2326709 -306.82012207 62.9653418 -306.37329102 63.72021484 C-302.25913412 70.63523826 -298.02039649 77.4723895 -293.77075195 84.3046875 C-289.09730462 91.82111967 -284.52764222 99.39512908 -280 107 C-279.0006591 108.66706195 -278.00091409 110.33388213 -277 112 C-273.28991285 109.36388544 -270.92089238 107.54808073 -270 103 C-271.26226711 100.18984329 -272.53317929 97.87669709 -274.1875 95.3125 C-274.64511719 94.57064453 -275.10273438 93.82878906 -275.57421875 93.06445312 C-276.54501036 91.4935118 -277.52357688 89.92735244 -278.50927734 88.36572266 C-280.41522632 85.34105093 -282.27626814 82.29014983 -284.13623047 79.23706055 C-285.04524925 77.74595079 -285.95703527 76.2565245 -286.87158203 74.76879883 C-290.61866676 68.66897084 -294.25264738 62.50659621 -297.828125 56.3046875 C-299.39222819 53.61297504 -300.78814908 51.21185092 -303 49 C-305.66949409 48.75684344 -305.66949409 48.75684344 -308.625 48.875 C-309.62789063 48.89304687 -310.63078125 48.91109375 -311.6640625 48.9296875 C-312.82035156 48.96449219 -312.82035156 48.96449219 -314 49 Z M-185 72 C-191.36468002 78.51110671 -196.79436739 85.53906606 -202 93 C-201.67 93.66 -201.34 94.32 -201 95 C-189.69081554 94.51952992 -189.69081554 94.51952992 -180.14941406 89.17138672 C-176.83414664 84.6044367 -174.4687538 79.56164106 -172.14355469 74.43701172 C-170.47354499 70.87807987 -168.46445907 67.55138952 -166.4375 64.1875 C-164.09476523 60.18877807 -162.3348428 56.44283498 -161 52 C-167.6752753 52 -180.05877514 67.16291898 -185 72 Z M-271.5859375 114.140625 C-282.88764072 127.52710842 -284.40353746 142.02226972 -283 159 C-281.05671525 171.07525366 -274.47354006 180.81538489 -265.0703125 188.50390625 C-256.3679556 194.79259058 -248.01958405 197.40491853 -237.3125 197.4375 C-236.43561523 197.44136719 -235.55873047 197.44523437 -234.65527344 197.44921875 C-227.19235673 197.31727768 -221.54112253 195.72259006 -215 192 C-214.54572098 188.07518738 -214.54572098 188.07518738 -216.6875 186.1875 C-220.12867667 184.42040928 -222.24815352 185.46471358 -225.828125 186.55859375 C-236.59007679 189.4483771 -246.69906526 188.09783585 -256.37890625 182.66015625 C-265.795522 176.69583182 -271.45165586 169.00791578 -274 158 C-275.20126234 143.76643814 -273.30753104 131.99917865 -264.2421875 120.4765625 C-257.14696251 112.63967636 -249.68993029 109.93306787 -239.63671875 107.82421875 C-233.56800198 106.56049205 -233.56800198 106.56049205 -229.1875 102.5625 C-227.78976949 100.01705818 -227.78976949 100.01705818 -228 97 C-245.29034829 96.18527155 -259.6171552 101.37852284 -271.5859375 114.140625 Z M-201 100 C-201.33 101.32 -201.66 102.64 -202 104 C-200.16816012 106.29179753 -200.16816012 106.29179753 -197 108 C-193.29311865 108.06651826 -189.67195557 107.47051478 -186 107 C-174.0250243 106.02628586 -163.2779329 109.26261939 -154 117 C-145.90802694 124.37366385 -140.639246 133.91973602 -140 145 C-139.9175 146.216875 -139.835 147.43375 -139.75 148.6875 C-139.90950033 158.95533383 -143.61517882 169.81085278 -150.44921875 177.5546875 C-159.35460612 185.8544188 -168.91748054 188.35853984 -180.84375 188.2109375 C-189.10012699 187.65914993 -195.49332536 185.20530001 -202.125 180.3046875 C-204.07144539 178.81936074 -204.07144539 178.81936074 -207 178 C-207.68620031 176.67661368 -208.34786461 175.34050052 -209 174 C-210.16921406 172.63034925 -211.33889672 171.26109379 -212.51171875 169.89453125 C-216.27936405 165.09844734 -219.36125241 159.73984833 -222.48828125 154.51171875 C-223.61201343 152.64546147 -224.7995342 150.81784821 -226 149 C-226.66 149 -227.32 149 -228 149 C-229.49506926 154.98027705 -229.96965012 159.99473717 -227.27734375 165.5625 C-226.5185069 166.72242216 -225.73764098 167.86817528 -224.9375 169 C-224.52338867 169.60739014 -224.10927734 170.21478027 -223.68261719 170.84057617 C-222.47929947 172.57934704 -221.24744932 174.29271486 -220 176 C-219.43925781 176.77988281 -218.87851562 177.55976562 -218.30078125 178.36328125 C-210.19129098 188.55631814 -198.42143777 194.64464056 -186 197.75 C-170.55639068 199.03696744 -158.56959643 195.8650112 -146.3125 186.25 C-138.22053252 178.94051051 -131.64706937 168.05560097 -130.859375 157.03198242 C-130.38951967 146.3533455 -130.88417988 137.02238302 -135 127 C-135.25394531 126.29101562 -135.50789063 125.58203125 -135.76953125 124.8515625 C-140.86517154 112.55174111 -152.75667487 103.85254031 -164.60546875 98.9140625 C-176.20004574 95.09013242 -189.63285323 95.87541975 -201 100 Z M-210 106 C-212.47177676 109.14812623 -212.47177676 109.14812623 -212.8125 112.99609375 C-211.76913133 115.56940207 -210.56001749 116.30577806 -208.25 117.8125 C-204.10261454 120.72909661 -201.72285319 123.7455419 -199 128 C-196.69 126.68 -194.38 125.36 -192 124 C-194.11011954 116.49735273 -200.86346396 110.4629353 -207 106 C-207.99 106 -208.98 106 -210 106 Z M-260 123 C-268.93194876 133.4689954 -270.02993974 143.71508113 -269 157 C-267.24275839 165.61784958 -263.06730468 172.53940168 -255.7578125 177.53125 C-253.54554512 178.81242841 -251.32391695 179.93702317 -249 181 C-248.071875 181.433125 -247.14375 181.86625 -246.1875 182.3125 C-238.36808439 183.99904062 -231.06747871 183.85498838 -224 180 C-225.20381448 177.50638429 -226.45428722 175.31856917 -228 173 C-231.05514421 172.78731137 -231.05514421 172.78731137 -234.5625 173.0625 C-243.20070426 173.22148535 -248.590963 171.49034464 -254.9375 165.625 C-260.08465816 159.96550897 -260.40248054 154.46422233 -260.24609375 147.03125 C-259.69629422 140.25911611 -257.61469527 134.66453309 -253.01171875 129.609375 C-250.47582916 127.58066333 -247.83008579 126.40146701 -244.875 125.0625 C-240.74071785 123.15949916 -238.31475318 121.87207919 -236.25 117.75 C-234.89459074 114.34258008 -234.89459074 114.34258008 -235 112 C-244.63656789 111.56670108 -253.29059151 116.36640404 -260 123 Z M-190 113 C-189.39547087 116.38536314 -188.39002846 118.5082682 -186 121 C-183.15389835 121.698442 -183.15389835 121.698442 -179.9375 121.875 C-171.31116536 122.98931494 -164.9603749 126.1317694 -159.5 133 C-154.82049985 140.03246915 -154.18254827 146.67876057 -155 155 C-156.50611445 161.80611215 -159.15626914 165.91402899 -164.90234375 169.84375 C-169.76459534 172.52387378 -172.9315453 173.12334867 -178.5 172.6875 C-183.0924354 172.46117521 -183.0924354 172.46117521 -186.95703125 174.55078125 C-188.51037385 176.67524753 -188.51037385 176.67524753 -190 180 C-189.67 180.66 -189.34 181.32 -189 182 C-182.0159651 184.32801163 -171.87168097 184.25850587 -165 181.4375 C-155.77341342 176.41922295 -149.60187803 169.12956606 -146.1875 159.25 C-143.12766637 147.76683127 -145.22028502 138.13946163 -150.6875 127.8125 C-156.76314895 120.42319722 -164.3422684 113.78846882 -174 112 C-176.37353686 111.90681264 -178.74963971 111.870041 -181.125 111.875 C-182.36507812 111.87242187 -183.60515625 111.86984375 -184.8828125 111.8671875 C-187.90723573 111.78331189 -187.90723573 111.78331189 -190 113 Z M-216 119 C-217.92215276 121.16242186 -218.9338618 122.52318972 -219.3359375 125.421875 C-219.23452427 128.09346897 -219.23452427 128.09346897 -217.3203125 129.87890625 C-216.59585938 130.43449219 -215.87140625 130.99007812 -215.125 131.5625 C-212.19028477 133.83979694 -210.43661428 135.54456461 -209 139 C-208.01 139 -207.02 139 -206 139 C-203.96271152 136.4533894 -202.92857997 134.92542126 -203.18359375 131.62109375 C-204.17250933 128.44615427 -205.5880218 126.70971986 -207.8125 124.25 C-208.84310547 123.08210938 -208.84310547 123.08210938 -209.89453125 121.890625 C-212.02359762 119.9788103 -213.20732084 119.37654101 -216 119 Z M-191.86328125 129.46875 C-200.55218579 135.69553351 -205.81866213 146.86278591 -211 156 C-211.4640625 156.71929687 -211.928125 157.43859375 -212.40625 158.1796875 C-213.24348362 160.07359608 -213.24348362 160.07359608 -212.1015625 162.140625 C-211.61429688 162.83671875 -211.12703125 163.5328125 -210.625 164.25 C-210.14289063 164.95640625 -209.66078125 165.6628125 -209.1640625 166.390625 C-208.77992188 166.92171875 -208.39578125 167.4528125 -208 168 C-204.21013171 166.54200824 -203.06587752 164.84626673 -201.2734375 161.26171875 C-198.9421554 156.76860897 -196.50376375 152.36805453 -193.9140625 148.01953125 C-193.56390076 147.42969452 -193.21373901 146.83985779 -192.85296631 146.23214722 C-191.77864867 144.42459781 -190.70188496 142.61852078 -189.625 140.8125 C-188.88132864 139.56195704 -188.13783801 138.31130658 -187.39453125 137.06054688 C-185.59842847 134.03912695 -183.79991069 131.01915343 -182 128 C-185.93391194 126.7032016 -188.2130108 127.47155951 -191.86328125 129.46875 Z M-176 128 C-177.79261076 130.26540451 -177.79261076 130.26540451 -179.5 133.3125 C-179.83894287 133.88210449 -180.17788574 134.45170898 -180.52709961 135.03857422 C-181.69872094 137.01785864 -182.85083544 139.00759651 -184 141 C-184.43973145 141.76006348 -184.87946289 142.52012695 -185.33251953 143.30322266 C-188.1617268 148.19480112 -188.1617268 148.19480112 -190.97558594 153.09521484 C-194.08966187 158.51800225 -197.36616138 163.74568472 -200.953125 168.87109375 C-202.19892434 170.93338805 -202.19892434 170.93338805 -201.7890625 173.17578125 C-200.70447632 175.68321564 -199.3309068 176.62887836 -197 178 C-196.01 178 -195.02 178 -194 178 C-192.69909647 176.55918853 -192.69909647 176.55918853 -191.6171875 174.58984375 C-191.17656982 173.85443359 -190.73595215 173.11902344 -190.28198242 172.36132812 C-189.81767822 171.56146484 -189.35337402 170.76160156 -188.875 169.9375 C-188.39071533 169.12345703 -187.90643066 168.30941406 -187.4074707 167.47070312 C-186.41091074 165.79414331 -185.41882943 164.11491358 -184.43115234 162.43310547 C-182.74601777 159.56820421 -181.03385773 156.72035829 -179.31640625 153.87475586 C-178.2102998 152.03786325 -177.11463143 150.19503129 -176.01953125 148.3515625 C-174.73661064 146.22246021 -173.42449301 144.11047398 -172.07421875 142.0234375 C-171.51347656 141.14945313 -170.95273437 140.27546875 -170.375 139.375 C-169.88773438 138.64023437 -169.40046875 137.90546875 -168.8984375 137.1484375 C-167.73364982 134.36307566 -168.0611166 132.83102086 -169 130 C-171.56310828 128.2058242 -172.83119306 128 -176 128 Z M-251 135 C-255.60102175 141.50489282 -255.60147945 148.23261876 -255 156 C-253.49746092 160.38719953 -253.49746092 160.38719953 -250 163 C-249.01819922 158.62558685 -248.04002402 154.25037067 -247.0625 149.875 C-246.78470703 148.6375 -246.50691406 147.4 -246.22070312 146.125 C-245.95322266 144.92617188 -245.68574219 143.72734375 -245.41015625 142.4921875 C-245.16402588 141.39245605 -244.91789551 140.29272461 -244.66430664 139.15966797 C-244.02438348 136.1159761 -243.48762201 133.07141169 -243 130 C-246.43985275 130 -248.65354743 132.70373893 -251 135 Z M-222 132 C-222.515625 133.0725 -223.03125 134.145 -223.5625 135.25 C-223.85253906 135.85328125 -224.14257812 136.4565625 -224.44140625 137.078125 C-225.16006152 139.55070118 -224.92051574 140.5924973 -224 143 C-222.86526517 144.94836963 -221.67260454 146.86365853 -220.4375 148.75 C-219.79683594 149.73484375 -219.15617188 150.7196875 -218.49609375 151.734375 C-218.00238281 152.48203125 -217.50867188 153.2296875 -217 154 C-213.92097876 151.94731917 -213.10208008 151.39808026 -212 148 C-212.20141167 142.56188488 -213.56171108 139.20235312 -217 135 C-219.60024049 133.13689678 -219.60024049 133.13689678 -222 132 Z M-164 138 C-165.65228468 140.57659751 -167.18685473 143.14909938 -168.6875 145.8125 C-172.22998649 152.00361677 -175.88242936 158.01365546 -179.91796875 163.8984375 C-180.27503906 164.59195313 -180.63210938 165.28546875 -181 166 C-180.67 166.99 -180.34 167.98 -180 169 C-173.92063217 168.72980587 -169.82225704 168.03723846 -165 164 C-160.70492745 159.24059529 -159.84874098 155.95992329 -159.8125 149.625 C-159.79123047 147.94277344 -159.79123047 147.94277344 -159.76953125 146.2265625 C-159.99634632 143.05115158 -160.64609332 140.85765282 -162 138 C-162.66 138 -163.32 138 -164 138 Z M-213 197 C-212.67 198.98 -212.34 200.96 -212 203 C-211.01 203 -210.02 203 -209 203 C-206.7986134 199.19572508 -206.7986134 199.19572508 -206 195 C-210.04622502 194.63019987 -210.04622502 194.63019987 -213 197 Z M-201 199 C-202.33878572 201.1217363 -203.67115476 203.24705188 -205 205.375 C-205.3815625 205.97828125 -205.763125 206.5815625 -206.15625 207.203125 C-208.29684569 210.36116713 -208.29684569 210.36116713 -209 214 C-209.99 214 -210.98 214 -212 214 C-212.3403125 212.7625 -212.3403125 212.7625 -212.6875 211.5 C-214.29486871 207.21368345 -216.49273939 203.82687146 -219 200 C-223.455 201.485 -223.455 201.485 -228 203 C-225.83649589 208.76287642 -222.69503733 213.84590431 -219.5625 219.125 C-218.97662109 220.12660156 -218.39074219 221.12820313 -217.78710938 222.16015625 C-217.21927734 223.12050781 -216.65144531 224.08085938 -216.06640625 225.0703125 C-215.55021729 225.94445801 -215.03402832 226.81860352 -214.50219727 227.71923828 C-213.15142213 229.77009824 -211.80815333 231.35278885 -210 233 C-205.69065414 226.64907979 -201.59079853 220.19549583 -197.625 213.625 C-196.80708984 212.29275391 -196.80708984 212.29275391 -195.97265625 210.93359375 C-195.20115234 209.65548828 -195.20115234 209.65548828 -194.4140625 208.3515625 C-193.71724365 207.20421631 -193.71724365 207.20421631 -193.00634766 206.03369141 C-191.77824576 203.93004169 -191.77824576 203.93004169 -192 201 C-194.97 200.34 -197.94 199.68 -201 199 Z " fill="#D1D1D1" transform="translate(596,343)"/>
<path d="M0 0 C8.79685587 -0.13903047 17.59333357 -0.24563481 26.39104843 -0.31087303 C30.47626299 -0.34218485 34.5607259 -0.38465229 38.64550781 -0.45263672 C42.58778513 -0.51783864 46.52933968 -0.55370717 50.47211456 -0.56926346 C51.97611116 -0.5803487 53.48006824 -0.6019968 54.98375702 -0.63438034 C57.09127681 -0.67796215 59.19581291 -0.68393448 61.30371094 -0.68115234 C62.50284119 -0.69447601 63.70197144 -0.70779968 64.93743896 -0.7215271 C68 0 68 0 70.43414307 2.86288452 C72 6 72 6 71.75 8.875 C71.37875 9.926875 71.37875 9.926875 71 11 C69.125 10.6875 69.125 10.6875 67 10 C65 7 65 7 65 4 C43.55 4 22.1 4 0 4 C-0.33 3.34 -0.66 2.68 -1 2 C-0.67 1.34 -0.34 0.68 0 0 Z " fill="#F6F6F6" transform="translate(241,372)"/>
<path d="M0 0 C29.7 0 59.4 0 90 0 C90.99 4.455 90.99 4.455 92 9 C91.34 9 90.68 9 90 9 C89.67 9.66 89.34 10.32 89 11 C88.50585602 9.86295624 88.01171204 8.72591248 87.50259399 7.55441284 C86.44911484 5.5925823 86.44911484 5.5925823 85 4 C81.97558992 3.27032883 79.98775076 3.05996242 76.95849609 3.12939453 C76.15157822 3.12022507 75.34466034 3.1110556 74.51329041 3.10160828 C71.84903741 3.07931877 69.18761129 3.10605574 66.5234375 3.1328125 C64.67305072 3.12596685 62.82267327 3.1159028 60.97232056 3.10275269 C56.10330726 3.07615141 51.23526794 3.09044316 46.36627197 3.11407471 C40.44337109 3.13570745 34.5205181 3.11159482 28.59763527 3.09202385 C23.9911708 3.07735751 19.38512607 3.07033566 14.77865601 3.08621216 C13.93340866 3.08751633 13.08816132 3.0888205 12.21730042 3.09016418 C10.63542015 3.09281134 9.05354006 3.09925014 7.47169495 3.11012268 C2.22518447 3.11259223 2.22518447 3.11259223 0 2 C0 1.34 0 0.68 0 0 Z " fill="#FBFBFA" transform="translate(229,357)"/>
<path d="M0 0 C2.37405874 2.19911895 3.99526116 4.42776777 5.63671875 7.2109375 C6.12785156 8.03770996 6.61898438 8.86448242 7.125 9.71630859 C7.640625 10.59367676 8.15625 11.47104492 8.6875 12.375 C9.76378892 14.18781715 10.84061269 16.00031685 11.91796875 17.8125 C12.44310059 18.69808594 12.96823242 19.58367187 13.50927734 20.49609375 C15.47976174 23.80583629 17.48312401 27.09330347 19.5 30.375 C20.0878125 31.33148438 20.675625 32.28796875 21.28125 33.2734375 C23.13781415 36.21862336 25.0570918 39.11120229 27 42 C26.67 42.66 26.34 43.32 26 44 C25.34 43.67 24.68 43.34 24 43 C24.33 45.97 24.66 48.94 25 52 C23 51 23 51 22.08984375 48.296875 C21.73019531 47.20890625 21.37054688 46.1209375 21 45 C19.91298797 43.0493719 18.76121251 41.1340471 17.5625 39.25 C16.8483464 38.11627065 16.13484311 36.98213149 15.421875 35.84765625 C15.03580078 35.23680176 14.64972656 34.62594727 14.25195312 33.99658203 C11.90226633 30.24936311 9.61228601 26.46546907 7.3125 22.6875 C6.41330196 21.21190944 5.51357702 19.73663981 4.61328125 18.26171875 C4.18490967 17.55716553 3.75653809 16.8526123 3.31518555 16.12670898 C2.41257261 14.66714684 1.49104358 13.21916479 0.55395508 11.78149414 C0.09529053 11.07500732 -0.36337402 10.36852051 -0.8359375 9.640625 C-1.25278809 9.0105957 -1.66963867 8.38056641 -2.09912109 7.73144531 C-3 6 -3 6 -2.9375 3.0625 C-2 1 -2 1 0 0 Z " fill="#C7C8C8" transform="translate(302,397)"/>
<path d="M0 0 C0.66 2.97 1.32 5.94 2 9 C1.34 9 0.68 9 0 9 C-0.33 9.66 -0.66 10.32 -1 11 C-1.41765625 9.86433594 -1.8353125 8.72867187 -2.265625 7.55859375 C-3.2993669 5.55084199 -3.2993669 5.55084199 -5 4 C-8.9004673 2.94675127 -12.72892952 3.02107079 -16.75 3.0625 C-17.82894531 3.04638672 -18.90789062 3.03027344 -20.01953125 3.01367188 C-22.68097393 2.97834299 -25.33855261 2.97493391 -28 3 C-28 2.34 -28 1.68 -28 1 C-18.62895894 0.11504503 -9.40228594 -0.1170409 0 0 Z " fill="#EEEDEB" transform="translate(319,357)"/>
<path d="M0 0 C2.59228021 2.38146224 4.39878018 4.94948743 6.25 7.9375 C7.06210937 9.21947266 7.06210937 9.21947266 7.890625 10.52734375 C9 13 9 13 8.671875 15.31640625 C8.45015625 15.87199219 8.2284375 16.42757813 8 17 C7.34 17 6.68 17 6 17 C5.67 17.99 5.34 18.98 5 20 C3.86788566 18.129287 2.74461905 16.25321809 1.625 14.375 C0.99851562 13.33085937 0.37203125 12.28671875 -0.2734375 11.2109375 C-1.90451153 8.17758264 -3.02076833 5.29377924 -4 2 C-3.01 2 -2.02 2 -1 2 C-0.67 1.34 -0.34 0.68 0 0 Z " fill="#CDCECE" transform="translate(313,380)"/>
<path d="M0 0 C4.38869494 6.58304241 5.48389805 12.25763123 5 20 C4.67 18.68 4.34 17.36 4 16 C3.34 16 2.68 16 2 16 C2 17.98 2 19.96 2 22 C1.67 22 1.34 22 1 22 C0.49356447 19.77228658 -0.0048962 17.54275924 -0.5 15.3125 C-0.7784375 14.07113281 -1.056875 12.82976562 -1.34375 11.55078125 C-1.89354126 8.57601782 -2.13795705 6.00631398 -2 3 C-1.34 3 -0.68 3 0 3 C0 2.01 0 1.02 0 0 Z " fill="#EDECEA" transform="translate(465,470)"/>
<path d="M0 0 C0.66 0.33 1.32 0.66 2 1 C-6.91 9.91 -15.82 18.82 -25 28 C-25.66 27.67 -26.32 27.34 -27 27 C-23.1362481 22.51270313 -19.24577917 18.13404814 -15 14 C-13.9171875 12.88625 -13.9171875 12.88625 -12.8125 11.75 C-8.66605642 7.69569961 -4.32865054 3.85796233 0 0 Z " fill="#B7B7B7" transform="translate(424,395)"/>
<path d="M0 0 C0.66 0.33 1.32 0.66 2 1 C-5.59 8.59 -13.18 16.18 -21 24 C-21.66 23.67 -22.32 23.34 -23 23 C-21.38150935 21.16053461 -19.75581169 19.32848583 -18.125 17.5 C-17.66480469 16.97535156 -17.20460938 16.45070313 -16.73046875 15.91015625 C-15.52827924 14.56858245 -14.26754054 13.28000815 -13 12 C-12.34 12 -11.68 12 -11 12 C-10.75378906 11.41605469 -10.50757813 10.83210938 -10.25390625 10.23046875 C-8.80583817 7.65462178 -7.19766892 6.20349432 -4.9375 4.3125 C-4.22464844 3.71050781 -3.51179688 3.10851562 -2.77734375 2.48828125 C-2.19082031 1.99714844 -1.60429687 1.50601562 -1 1 C-0.67 0.67 -0.34 0.34 0 0 Z " fill="#B4B4B4" transform="translate(412,387)"/>
<path d="M0 0 C2.50037734 2.17424117 3.43628586 3.73045798 4 7 C3.34 7 2.68 7 2 7 C1.67 8.32 1.34 9.64 1 11 C-2.0916909 8.47043472 -2.90931332 5.77545388 -4 2 C-3.01 2 -2.02 2 -1 2 C-0.67 1.34 -0.34 0.68 0 0 Z " fill="#C5C6C5" transform="translate(313,380)"/>
<path d="M0 0 C1.21236328 0.01353516 1.21236328 0.01353516 2.44921875 0.02734375 C3.37154297 0.04474609 3.37154297 0.04474609 4.3125 0.0625 C4.3125 0.7225 4.3125 1.3825 4.3125 2.0625 C2.3325 3.0525 2.3325 3.0525 0.3125 4.0625 C0.3125 4.3925 0.3125 4.7225 0.3125 5.0625 C-2.88652639 5.15136184 -5.61427456 4.97308531 -8.6875 4.0625 C-8.3575 3.0725 -8.0275 2.0825 -7.6875 1.0625 C-4.80538698 0.10179566 -2.98899956 -0.04331883 0 0 Z " fill="#F7F6F4" transform="translate(568.6875,340.9375)"/>
<path d="M0 0 C1.47006623 4.41019868 0.43537323 7.69388031 -1 12 C-1.99 12 -2.98 12 -4 12 C-4.80967438 9.08517222 -5.21845993 7.53886783 -4.0625 4.6875 C-3.711875 4.130625 -3.36125 3.57375 -3 3 C-2.34 3 -1.68 3 -1 3 C-0.67 2.01 -0.34 1.02 0 0 Z " fill="#E4E2E2" transform="translate(388,545)"/>
<path d="M0 0 C0.33 0.66 0.66 1.32 1 2 C-4.61 1.67 -10.22 1.34 -16 1 C-16 0.67 -16 0.34 -16 0 C-10.43779559 -0.81982605 -5.51547368 -1.26396272 0 0 Z " fill="#747471" transform="translate(614,347)"/>
<path d="M0 0 C0.66 0.33 1.32 0.66 2 1 C0.38113585 2.67262717 -1.2452729 4.33795537 -2.875 6 C-3.77992188 6.928125 -4.68484375 7.85625 -5.6171875 8.8125 C-8 11 -8 11 -10 11 C-8.85455923 7.56367769 -7.7288492 6.66528415 -5 4.375 C-4.278125 3.76398438 -3.55625 3.15296875 -2.8125 2.5234375 C-2.214375 2.02070313 -1.61625 1.51796875 -1 1 C-0.67 0.67 -0.34 0.34 0 0 Z " fill="#B1B1B1" transform="translate(424,395)"/>
<path d="M0 0 C1.9375 0.8125 1.9375 0.8125 4 2 C4.33 2.99 4.66 3.98 5 5 C4.34 5.66 3.68 6.32 3 7 C2.34 6.34 1.68 5.68 1 5 C0.34 4.67 -0.32 4.34 -1 4 C-0.67 2.68 -0.34 1.36 0 0 Z " fill="#E7E6E6" transform="translate(379,524)"/>
<path d="M0 0 C1.32 0.66 2.64 1.32 4 2 C2.93453047 4.13093906 1.70840281 5.36587557 0 7 C-1.32 6.01 -2.64 5.02 -4 4 C-3.01 4 -2.02 4 -1 4 C-0.67 2.68 -0.34 1.36 0 0 Z " fill="#C7C7C8" transform="translate(369,511)"/>
</svg>
