<?xml version="1.0" encoding="UTF-8"?>
<svg version="1.1" xmlns="http://www.w3.org/2000/svg" width="737" height="737">
<path d="M0 0 C3.49195932 0.01067952 6.98339831 0.00005348 10.4753418 -0.01269531 C32.14355097 -0.02856612 53.72313072 1.00443097 75.08349609 4.81030273 C77.31740587 5.20802628 79.55404081 5.58619491 81.79174805 5.96191406 C93.23412352 7.91311114 104.3584476 10.42246594 115.32495117 14.26074219 C115.32495117 14.92074219 115.32495117 15.58074219 115.32495117 16.26074219 C114.25462646 16.25026855 113.18430176 16.23979492 112.08154297 16.22900391 C74.67529424 15.89668781 38.23547475 17.73909702 1.69995117 26.38574219 C0.63381592 26.60770264 -0.43231934 26.82966309 -1.53076172 27.05834961 C-5.89410111 28.18376475 -8.7459802 29.05760917 -11.55541992 32.69580078 C-13.08938121 35.49964536 -14.3986777 38.33205062 -15.67504883 41.26074219 C-16.4078955 42.57446272 -17.16284967 43.87633093 -17.94848633 45.15917969 C-18.29419678 45.73385986 -18.63990723 46.30854004 -18.99609375 46.90063477 C-19.34389893 47.47322021 -19.6917041 48.04580566 -20.05004883 48.63574219 C-20.42943604 49.26440186 -20.80882324 49.89306152 -21.19970703 50.54077148 C-24.3848431 55.80872569 -27.61348931 61.04966741 -30.84692383 66.28808594 C-33.8469267 71.16629573 -36.78619849 76.0805986 -39.71069336 81.00439453 C-47.39859616 93.9466434 -47.39859616 93.9466434 -50.86254883 99.01074219 C-52.91510418 102.01625621 -54.69123307 105.07603465 -56.39379883 108.29199219 C-59.67749349 114.36180614 -63.29406804 120.18388042 -66.98754883 126.01074219 C-71.68055689 133.46042606 -76.31914963 140.9307652 -80.80834961 148.50488281 C-82.73565628 151.74209056 -84.73779232 154.89988074 -86.86254883 158.01074219 C-88.91870667 161.03054894 -90.70949022 164.0976097 -92.42504883 167.32324219 C-96.00042716 173.99605624 -100.04549893 180.35446597 -104.08862305 186.74853516 C-107.29638398 191.82823044 -110.48543766 196.91963938 -113.67504883 202.01074219 C-114.33432373 203.0589917 -114.99359863 204.10724121 -115.67285156 205.18725586 C-116.29232666 206.1757251 -116.91180176 207.16419434 -117.55004883 208.18261719 C-118.1043457 209.06530273 -118.65864258 209.94798828 -119.22973633 210.85742188 C-119.70668945 211.65051758 -120.18364258 212.44361328 -120.67504883 213.26074219 C-121.09866699 213.95393555 -121.52228516 214.64712891 -121.95874023 215.36132812 C-123.02306599 217.53160102 -123.02306599 217.53160102 -121.26098633 220.72949219 C-120.53675622 222.08015614 -119.79893999 223.42359433 -119.05004883 224.76074219 C-107.33524131 246.87978511 -106.07350963 269.85590663 -109.67504883 294.26074219 C-109.80782227 295.16953125 -109.9405957 296.07832031 -110.07739258 297.01464844 C-111.93045147 307.72709367 -115.92527804 318.05464852 -121.67504883 327.26074219 C-122.25770508 328.20175781 -122.84036133 329.14277344 -123.44067383 330.11230469 C-129.30785599 339.45542249 -129.30785599 339.45542249 -131.67504883 342.26074219 C-132.33504883 342.26074219 -132.99504883 342.26074219 -133.67504883 342.26074219 C-133.92770508 342.83566406 -134.18036133 343.41058594 -134.44067383 344.00292969 C-142.946826 359.56165107 -165.41649635 370.50132928 -181.61254883 375.63574219 C-183.62870799 376.19455553 -185.64914144 376.73837316 -187.67504883 377.26074219 C-188.7675293 377.57978516 -188.7675293 377.57978516 -189.88208008 377.90527344 C-197.59621105 379.9554918 -205.74138232 379.91461208 -213.67504883 380.26074219 C-213.78123535 380.81802002 -213.88742187 381.37529785 -213.99682617 381.94946289 C-214.80391625 384.69990268 -216.03602098 386.79140863 -217.52661133 389.24121094 C-218.12320557 390.22798828 -218.7197998 391.21476562 -219.33447266 392.23144531 C-219.98311279 393.29298828 -220.63175293 394.35453125 -221.30004883 395.44824219 C-222.32109016 397.13427067 -223.34212402 398.82030373 -224.36268616 400.50662231 C-225.4243756 402.25944683 -226.488249 404.01093089 -227.55249023 405.76220703 C-230.88467521 411.24938128 -234.18558456 416.75534849 -237.48754883 422.26074219 C-238.11371094 423.30367432 -238.73987305 424.34660645 -239.38500977 425.42114258 C-243.37170287 432.0672106 -247.32325056 438.73269921 -251.24169922 445.41918945 C-254.31032871 450.65284653 -257.41030282 455.86700308 -260.55004883 461.05834961 C-262.22349316 463.82622955 -263.86906331 466.60302102 -265.46411133 469.41699219 C-265.9874707 470.33480469 -266.51083008 471.25261719 -267.05004883 472.19824219 C-267.71133789 473.38740234 -267.71133789 473.38740234 -268.38598633 474.60058594 C-268.81137695 475.1484375 -269.23676758 475.69628906 -269.67504883 476.26074219 C-270.66504883 476.26074219 -271.65504883 476.26074219 -272.67504883 476.26074219 C-274.38916016 474.03271484 -274.38916016 474.03271484 -276.25708008 470.92480469 C-276.9422168 469.796875 -277.62735352 468.66894531 -278.33325195 467.50683594 C-279.05160267 466.2999545 -279.76970023 465.09292235 -280.48754883 463.88574219 C-281.1929329 462.71717156 -281.89930294 461.54919549 -282.60668945 460.38183594 C-284.64243692 457.01584792 -286.6596382 453.63894943 -288.67504883 450.26074219 C-289.76432528 448.44269384 -290.85411152 446.62495076 -291.94458008 444.80761719 C-292.65795532 443.61869873 -292.65795532 443.61869873 -293.38574219 442.40576172 C-297.70918961 435.212842 -302.08615243 428.08064299 -306.80004883 421.13574219 C-309.98177124 416.42554529 -312.72151968 411.59765346 -315.37817383 406.57714844 C-316.65931662 404.14065179 -316.65931662 404.14065179 -318.67504883 401.76074219 C-321.36026622 398.40422045 -323.20217377 394.71378355 -325.21411133 390.92480469 C-326.40446265 388.75416404 -327.64016494 386.72807502 -329.05004883 384.69824219 C-330.67504883 382.26074219 -330.67504883 382.26074219 -330.67504883 380.26074219 C-332.37661133 380.35355469 -332.37661133 380.35355469 -334.11254883 380.44824219 C-357.78861139 380.37402256 -380.3661705 370.75021874 -398.67504883 356.26074219 C-399.32989258 355.74769531 -399.98473633 355.23464844 -400.65942383 354.70605469 C-409.32317545 347.61404562 -415.59088335 338.55202201 -421.67504883 329.26074219 C-422.31958008 328.27847656 -422.96411133 327.29621094 -423.62817383 326.28417969 C-428.34419729 318.67702879 -431.26338091 310.8337127 -433.67504883 302.26074219 C-433.93543945 301.41648682 -434.19583008 300.57223145 -434.46411133 299.70239258 C-436.93719853 291.03407472 -437.23005116 282.63229768 -437.17504883 273.69824219 C-437.17361877 272.94917603 -437.17218872 272.20010986 -437.17071533 271.42834473 C-437.11419532 259.45951291 -436.04209189 248.48628236 -431.67504883 237.26074219 C-431.41852539 236.58624023 -431.16200195 235.91173828 -430.89770508 235.21679688 C-428.92669532 230.12992467 -426.83461748 225.16555566 -423.99145508 220.49511719 C-422.50193245 218.42332881 -422.50193245 218.42332881 -422.73754883 216.38574219 C-425.59328015 209.91275119 -429.70147538 203.96659119 -433.48754883 198.01074219 C-434.28757324 196.74786377 -434.28757324 196.74786377 -435.10375977 195.45947266 C-437.86915312 191.09620309 -440.64459601 186.73943044 -443.42504883 182.38574219 C-446.50473514 177.55691364 -449.50316818 172.68020186 -452.48754883 167.79199219 C-454.29524445 164.85106146 -456.15159669 161.94266739 -458.01098633 159.03417969 C-461.51958183 153.53134257 -464.92155477 147.9691071 -468.30004883 142.38574219 C-473.0523267 134.56181538 -477.8126037 126.74303694 -482.61254883 118.94824219 C-483.11931152 118.12018066 -483.62607422 117.29211914 -484.14819336 116.43896484 C-485.10694593 114.88581706 -486.08483343 113.34423295 -487.08602905 111.81809998 C-488.67504883 109.26074219 -488.67504883 109.26074219 -489.90930176 106.6403656 C-491.55197513 103.56722554 -493.01070712 101.52844997 -495.67504883 99.26074219 C-500.53689049 98.06183187 -505.13758823 98.08995875 -510.12146187 98.26276779 C-512.59094413 98.34795567 -515.05451174 98.3714156 -517.52537537 98.37979126 C-522.76427951 98.40923861 -527.99995852 98.51996185 -533.23754883 98.63574219 C-539.31342774 98.76105389 -545.38757295 98.85273962 -551.46470451 98.88255692 C-553.89180043 98.90877828 -556.31399993 98.98447566 -558.73988342 99.06307983 C-569.35448368 99.2470305 -569.35448368 99.2470305 -572.9699707 96.54673767 C-574.52794587 94.50385767 -575.61612827 92.59362548 -576.67504883 90.26074219 C-577.3530957 89.2153125 -578.03114258 88.16988281 -578.72973633 87.09277344 C-579.33043945 86.09632813 -579.93114258 85.09988281 -580.55004883 84.07324219 C-581.56518555 82.40068359 -581.56518555 82.40068359 -582.60083008 80.69433594 C-582.9432373 80.1269873 -583.28564453 79.55963867 -583.63842773 78.97509766 C-589.82689949 68.74065378 -596.08604198 58.53547678 -602.80004883 48.63574219 C-605.19207209 45.07610862 -607.27848212 41.42203925 -609.32348633 37.65527344 C-612.61261644 31.82799957 -616.27639763 26.19726964 -620.17504883 20.76074219 C-620.67004883 19.93574219 -621.16504883 19.11074219 -621.67504883 18.26074219 C-621.18004883 16.77574219 -621.18004883 16.77574219 -620.67504883 15.26074219 C-592.45089723 15.14404056 -564.2267817 15.05581852 -536.00243759 15.00168133 C-522.89794611 14.97587852 -509.79360437 14.94068813 -496.68920898 14.88354492 C-485.26998969 14.83377377 -473.85087882 14.8014663 -462.43155408 14.79029971 C-456.38272767 14.78377036 -450.33421148 14.76838104 -444.28548431 14.7320919 C-438.59573789 14.69823203 -432.90643039 14.68766909 -427.21659279 14.69520378 C-425.12514933 14.69382476 -423.03369166 14.68383307 -420.94233513 14.66471481 C-418.09242111 14.63993341 -415.24417659 14.6457825 -412.39422607 14.6594696 C-411.14519945 14.63762329 -411.14519945 14.63762329 -409.87093997 14.61533564 C-405.88995638 14.66721898 -404.10996567 14.83473073 -401.21146011 17.6738863 C-400.70444439 18.52754874 -400.19742867 19.38121119 -399.67504883 20.26074219 C-399.24546875 20.91776123 -398.81588867 21.57478027 -398.37329102 22.25170898 C-397.99333984 22.89793213 -397.61338867 23.54415527 -397.22192383 24.20996094 C-396.55217529 25.33942139 -396.55217529 25.33942139 -395.86889648 26.49169922 C-395.39242676 27.3023584 -394.91595703 28.11301758 -394.42504883 28.94824219 C-388.80903198 38.41026107 -383.06601439 47.78952845 -377.28344727 57.15014648 C-373.80642814 62.78262059 -370.35870679 68.42995268 -366.9621582 74.11132812 C-365.36548637 76.77769741 -363.74369341 79.427836 -362.11254883 82.07324219 C-361.44352539 83.15992188 -360.77450195 84.24660156 -360.08520508 85.36621094 C-358.22727671 88.3746288 -356.35651689 91.37488991 -354.48364258 94.37402344 C-344.52125674 110.35297056 -344.52125674 110.35297056 -340.33520508 118.31542969 C-337.42193165 123.4839195 -334.18654352 128.45565268 -330.98730469 133.45068359 C-328.08299171 137.99128885 -325.32930967 142.57011523 -322.67504883 147.26074219 C-321.89335618 148.56179448 -321.10671491 149.85988374 -320.31567383 151.15527344 C-319.92250977 151.80044922 -319.5293457 152.445625 -319.12426758 153.11035156 C-318.3118506 154.44012202 -317.496659 155.76820061 -316.67895508 157.09472656 C-313.67504883 162.03969516 -313.67504883 162.03969516 -313.67504883 164.26074219 C-310.8435291 164.6788342 -310.8435291 164.6788342 -307.67504883 164.26074219 C-305.13504831 161.79544757 -303.6641159 159.24082329 -301.96411133 156.14355469 C-299.37193847 151.58542148 -296.2786862 147.41735921 -293.17504883 143.19824219 C-292.03860042 141.64561143 -290.90316124 140.09224139 -289.76879883 138.53808594 C-289.23512695 137.80960449 -288.70145508 137.08112305 -288.15161133 136.33056641 C-286.8362062 134.48665029 -285.60567962 132.61478807 -284.39379883 130.70214844 C-283.82661133 129.89648438 -283.25942383 129.09082031 -282.67504883 128.26074219 C-282.01504883 128.26074219 -281.35504883 128.26074219 -280.67504883 128.26074219 C-280.41723633 127.68453125 -280.15942383 127.10832031 -279.89379883 126.51464844 C-278.57018122 124.06680434 -277.04497162 122.25436492 -275.17504883 120.19824219 C-273.11689322 117.92642212 -271.38366711 115.82366962 -269.67504883 113.26074219 C-269.01504883 113.26074219 -268.35504883 113.26074219 -267.67504883 113.26074219 C-267.36567383 112.46410156 -267.36567383 112.46410156 -267.05004883 111.65136719 C-265.09543691 108.25300783 -262.45381166 105.75018291 -259.67504883 103.01074219 C-259.12848633 102.45644531 -258.58192383 101.90214844 -258.01879883 101.33105469 C-253.92843553 97.26074219 -253.92843553 97.26074219 -251.67504883 97.26074219 C-251.67504883 96.60074219 -251.67504883 95.94074219 -251.67504883 95.26074219 C-249.79614258 93.51855469 -249.79614258 93.51855469 -247.11254883 91.38574219 C-245.62754883 90.20044922 -245.62754883 90.20044922 -244.11254883 88.99121094 C-243.29270508 88.34224854 -243.29270508 88.34224854 -242.45629883 87.68017578 C-240.51680656 86.13464288 -238.59528259 84.56840989 -236.67504883 82.99902344 C-235.3210655 81.89853741 -233.96690057 80.79827477 -232.61254883 79.69824219 C-231.95762451 79.16150879 -231.3027002 78.62477539 -230.62792969 78.07177734 C-225.90222132 74.26074219 -225.90222132 74.26074219 -223.67504883 74.26074219 C-223.67504883 73.60074219 -223.67504883 72.94074219 -223.67504883 72.26074219 C-221.74169922 70.72363281 -221.74169922 70.72363281 -219.02270508 68.91699219 C-218.02674316 68.25248047 -217.03078125 67.58796875 -216.00463867 66.90332031 C-214.3874292 65.84274414 -214.3874292 65.84274414 -212.73754883 64.76074219 C-211.64394043 64.03822266 -210.55033203 63.31570312 -209.42358398 62.57128906 C-203.21240995 58.4954622 -196.95998317 54.51659267 -190.55004883 50.76074219 C-189.53575806 50.16132813 -189.53575806 50.16132813 -188.50097656 49.54980469 C-185.3582661 47.71863721 -182.22005521 46.01903402 -178.90942383 44.51074219 C-168.47961225 39.57089152 -164.06549519 32.3602943 -158.80322266 22.35375977 C-158.43092529 21.66306396 -158.05862793 20.97236816 -157.67504883 20.26074219 C-157.37405273 19.36194336 -157.07305664 18.46314453 -156.76293945 17.53710938 C-154.18336478 14.72467319 -153.32072063 14.86811219 -149.59960938 14.66479492 C-147.42035257 14.65062925 -145.24083527 14.66232175 -143.06176758 14.69433594 C-141.90062943 14.68870132 -140.73949127 14.68306671 -139.54316711 14.67726135 C-135.81588896 14.660762 -132.0897862 14.67635829 -128.36254883 14.69824219 C-107.13462431 15.11019101 -107.13462431 15.11019101 -86.67504883 10.26074219 C-77.2629503 7.59297853 -67.61910459 5.79640907 -57.98754883 4.13574219 C-57.09374512 3.9771875 -56.19994141 3.81863281 -55.27905273 3.65527344 C-36.93727662 0.61375265 -18.56006787 -0.06714837 0 0 Z M-137.67504883 41.26074219 C-138.50149902 41.6163623 -139.32794922 41.97198242 -140.17944336 42.33837891 C-173.10243974 56.55042137 -203.91338643 75.30473794 -230.67504883 99.26074219 C-231.57739258 100.06382812 -232.47973633 100.86691406 -233.40942383 101.69433594 C-235.05594238 103.1695552 -236.69681779 104.6511032 -238.33129883 106.13964844 C-239.87834674 107.5397268 -241.44073547 108.92306114 -243.01879883 110.28808594 C-254.76563868 120.52843171 -264.98057152 132.16738809 -274.37817383 144.56542969 C-275.67591456 146.26187389 -276.99894808 147.93513508 -278.33129883 149.60449219 C-283.11548779 155.63292731 -287.3300445 161.76230354 -291.09301758 168.49511719 C-292.53513204 171.01614691 -294.0794888 173.37861976 -295.73754883 175.76074219 C-298.57491691 179.94212673 -300.78363021 184.30695726 -302.98364258 188.85058594 C-304.20554753 191.3141495 -305.45591658 193.72820176 -306.77270508 196.13964844 C-314.99070882 211.1985561 -321.80024895 226.79050505 -326.67504883 243.26074219 C-326.88758301 243.97665527 -327.10011719 244.69256836 -327.3190918 245.43017578 C-333.35076807 266.12223789 -335.19347592 285.72607834 -334.67504883 307.26074219 C-333.02874555 307.12031341 -331.38300703 306.9732489 -329.73754883 306.82324219 C-328.82102539 306.74203125 -327.90450195 306.66082031 -326.96020508 306.57714844 C-324.71345151 306.50029243 -324.71345151 306.50029243 -323.67504883 305.26074219 C-323.51068575 302.46656987 -323.39468491 299.68242994 -323.30004883 296.88574219 C-322.99855986 289.96005347 -322.38797818 283.17063324 -321.30004883 276.32324219 C-321.18612793 275.59250488 -321.07220703 274.86176758 -320.95483398 274.10888672 C-319.09683951 262.99316809 -315.8654805 252.30794645 -312.30004883 241.63574219 C-311.9262207 240.48589844 -311.55239258 239.33605469 -311.16723633 238.15136719 C-309.11289722 231.97427904 -306.8338369 226.16025378 -303.77099609 220.41137695 C-302.6720903 218.25493652 -301.81145024 216.09717831 -300.98754883 213.82324219 C-296.36909893 201.98962358 -289.69269378 190.83203558 -283.30004883 179.88574219 C-282.8957666 179.19085693 -282.49148438 178.49597168 -282.07495117 177.7800293 C-279.84905802 174.02342935 -277.4472702 170.64702549 -274.67504883 167.26074219 C-274.11817383 166.22949219 -273.56129883 165.19824219 -272.98754883 164.13574219 C-269.94923526 158.65253567 -265.68618743 154.04449175 -261.67504883 149.26074219 C-260.13135443 147.36655958 -258.58964293 145.47075902 -257.05004883 143.57324219 C-251.52695204 136.84406187 -246.15995168 130.49298684 -239.51489258 124.84277344 C-236.55450784 122.29721968 -233.85916472 119.50314358 -231.16723633 116.67871094 C-226.95070486 112.33470294 -222.4398836 108.61886573 -217.61645508 104.95996094 C-216.97579102 104.39921875 -216.33512695 103.83847656 -215.67504883 103.26074219 C-215.67504883 102.60074219 -215.67504883 101.94074219 -215.67504883 101.26074219 C-214.94286133 101.00808594 -214.21067383 100.75542969 -213.45629883 100.49511719 C-210.4720724 99.17065714 -208.61283603 97.67224684 -206.17504883 95.51074219 C-193.1654162 84.62262647 -178.37710413 75.75876898 -163.65307617 67.39453125 C-161.73654035 66.29598862 -159.83953497 65.16945221 -157.94458008 64.03417969 C-112.53999066 37.17671302 -57.45653833 21.58667985 -5.67504883 13.26074219 C-5.67504883 12.93074219 -5.67504883 12.60074219 -5.67504883 12.26074219 C-49.96951583 11.77203693 -97.16832526 23.57636609 -137.67504883 41.26074219 Z M-589.67504883 33.26074219 C-588.73890316 34.99064244 -587.80106925 36.71962915 -586.86254883 38.44824219 C-586.34047852 39.41117188 -585.8184082 40.37410156 -585.28051758 41.36621094 C-584.75071289 42.32140625 -584.2209082 43.27660156 -583.67504883 44.26074219 C-583.24301368 45.19507772 -582.81097853 46.12941326 -582.3658514 47.092062 C-580.832098 49.5419049 -580.832098 49.5419049 -577.8874979 49.83852577 C-576.74807712 49.8166136 -575.60865633 49.79470142 -574.43470764 49.77212524 C-572.47300125 49.7538694 -572.47300125 49.7538694 -570.47166443 49.73524475 C-569.01869909 49.69668773 -567.56574216 49.65781285 -566.11279297 49.61865234 C-564.58507617 49.59600266 -563.057321 49.57582466 -561.52954102 49.55793762 C-558.23564552 49.51585197 -554.94238588 49.45971602 -551.64888191 49.39384842 C-546.43252349 49.29316639 -541.21652999 49.24540331 -535.99937439 49.20907593 C-534.2121319 49.19595431 -532.42488997 49.18275672 -530.63764858 49.16948509 C-529.29483564 49.1595163 -529.29483564 49.1595163 -527.92489517 49.14934611 C-515.77975214 49.05428436 -503.63637082 48.91277667 -491.49316406 48.67480469 C-483.30198874 48.51471004 -475.11303446 48.42302928 -466.92027372 48.40737951 C-462.58663179 48.39618799 -458.25969258 48.35020731 -453.92787361 48.2195015 C-427.59622126 47.4515002 -427.59622126 47.4515002 -421.06921959 52.12763405 C-416.98212319 56.54795205 -414.56156964 61.43824749 -412.51695824 67.0575037 C-411.42218138 69.92248476 -409.8672451 72.33772163 -408.12426758 74.85058594 C-403.42913589 82.23686922 -398.81273864 89.6388653 -394.45239258 97.22949219 C-389.23244236 106.13208861 -383.67748582 114.84267904 -377.90161133 123.39355469 C-376.4061066 125.67015105 -375.05397952 128.01990946 -373.72583008 130.39746094 C-369.87795619 137.22064251 -365.71162764 143.85575695 -361.47192383 150.44042969 C-360.23014201 152.38948724 -359.01281434 154.35426384 -357.81567383 156.33105469 C-357.21239258 157.31847656 -356.60911133 158.30589844 -355.98754883 159.32324219 C-355.44743164 160.22171875 -354.90731445 161.12019531 -354.35083008 162.04589844 C-352.49640386 164.49685337 -351.62321176 165.42500209 -348.67504883 166.26074219 C-345.15103933 166.06851743 -345.15103933 166.06851743 -341.42504883 165.38574219 C-339.53012695 165.08023438 -339.53012695 165.08023438 -337.59692383 164.76855469 C-336.63270508 164.60097656 -335.66848633 164.43339844 -334.67504883 164.26074219 C-337.28251508 158.59233729 -340.41853065 153.4599846 -343.83300781 148.24072266 C-347.24789647 142.99200112 -350.47443826 137.6422953 -353.67504883 132.26074219 C-357.19943189 126.33641147 -360.77724427 120.46774597 -364.55004883 114.69824219 C-367.67710939 109.89476107 -370.54296159 105.03900842 -373.19067383 99.95605469 C-376.07128869 94.72546455 -379.36600342 89.74166986 -382.57739258 84.70996094 C-387.42323489 77.11535363 -392.19210877 69.56084352 -396.39379883 61.58496094 C-398.08426459 58.51841481 -400.04729247 55.68109603 -402.02661133 52.79589844 C-404.50976756 48.97701599 -406.72861936 45.01464134 -408.9597168 41.04467773 C-410.45645975 38.38235273 -411.97949954 35.80406612 -413.67504883 33.26074219 C-416.81655072 32.81044746 -416.81655072 32.81044746 -420.59719849 32.89997864 C-421.31761255 32.89741536 -422.03802662 32.89485209 -422.78027141 32.89221114 C-425.20652154 32.88724971 -427.63215633 32.90380435 -430.05834961 32.92016602 C-431.79261256 32.92101178 -433.52687659 32.92053813 -435.26113892 32.9188385 C-439.97997165 32.91797515 -444.6985772 32.93565577 -449.41735697 32.95656037 C-454.34478521 32.97527066 -459.27221823 32.97707314 -464.19967651 32.9806366 C-473.53530931 32.98997371 -482.87083714 33.01460998 -492.20642364 33.04468507 C-502.8326134 33.07817731 -513.45880809 33.09470204 -524.08503747 33.10977137 C-545.94843325 33.14115812 -567.81173444 33.19395091 -589.67504883 33.26074219 Z M-44.61254883 35.51074219 C-45.81782227 35.92839844 -47.0230957 36.34605469 -48.26489258 36.77636719 C-53.46297647 39.03899248 -56.70610347 41.71149149 -59.48754883 46.63574219 C-59.98899414 47.50972656 -60.49043945 48.38371094 -61.00708008 49.28417969 C-61.55750977 50.26644531 -62.10793945 51.24871094 -62.67504883 52.26074219 C-63.6674451 53.99892724 -64.65991305 55.73707232 -65.65429688 57.47412109 C-66.6239571 59.17131639 -67.58718464 60.87218212 -68.55004883 62.57324219 C-70.69325966 66.32464794 -72.9199513 70.02452591 -75.14868164 73.72558594 C-76.54602171 76.04643995 -77.93628278 78.37132011 -79.32348633 80.69824219 C-88.31331972 95.75209689 -97.52040422 110.66982691 -106.72998047 125.58984375 C-110.73175707 132.08116112 -114.69943012 138.59062522 -118.61254883 145.13574219 C-119.64509455 146.85970433 -120.67764669 148.58366263 -121.71020508 150.30761719 C-122.21052246 151.14357422 -122.71083984 151.97953125 -123.22631836 152.84082031 C-125.33157545 156.35738727 -127.44074642 159.87160078 -129.55004883 163.38574219 C-130.27272853 164.5901552 -130.99538577 165.79458169 -131.71801758 166.99902344 C-136.37036133 174.75292969 -141.02270508 182.50683594 -145.67504883 190.26074219 C-145.27672852 190.71964844 -144.8784082 191.17855469 -144.46801758 191.65136719 C-141.76362821 194.78345803 -139.09513112 197.89951678 -136.67504883 201.26074219 C-133.19167548 200.09961774 -132.95503257 199.54193852 -131.17895508 196.49121094 C-130.70852783 195.69424805 -130.23810059 194.89728516 -129.75341797 194.07617188 C-129.00306274 192.77534668 -129.00306274 192.77534668 -128.23754883 191.44824219 C-127.16485791 189.62389068 -126.09193438 187.79967593 -125.01879883 185.97558594 C-124.46836914 185.03312012 -123.91793945 184.0906543 -123.35083008 183.11962891 C-120.67998541 178.56316168 -117.95812767 174.03762452 -115.23754883 169.51074219 C-114.75423096 168.7027417 -114.27091309 167.89474121 -113.77294922 167.06225586 C-109.87118179 160.54757075 -105.85938122 154.11006576 -101.77270508 147.70996094 C-101.27448242 146.92814453 -100.77625977 146.14632812 -100.26293945 145.34082031 C-99.25245208 143.75586892 -98.23946109 142.17251071 -97.22387695 140.59082031 C-94.57818023 136.4293954 -92.08485689 132.23564118 -89.75317383 127.88964844 C-86.54644353 121.92877374 -82.98510757 116.22571681 -79.36254883 110.51074219 C-74.66954077 103.06105832 -70.03094803 95.59071918 -65.54174805 88.01660156 C-63.61444138 84.77939382 -61.61230533 81.62160363 -59.48754883 78.51074219 C-56.77752787 74.53554569 -54.50053619 70.389279 -52.26489258 66.13183594 C-50.63319499 63.18515848 -48.87848155 60.35008056 -47.08203125 57.50219727 C-44.46063469 53.32606646 -41.91251182 49.10572954 -39.36254883 44.88574219 C-38.81276367 43.9846875 -38.26297852 43.08363281 -37.6965332 42.15527344 C-36.91826172 40.86556641 -36.91826172 40.86556641 -36.12426758 39.54980469 C-35.65335693 38.77330566 -35.18244629 37.99680664 -34.69726562 37.19677734 C-33.51941255 35.33086178 -33.51941255 35.33086178 -33.67504883 33.26074219 C-37.92336223 33.26074219 -40.62804147 34.09894236 -44.61254883 35.51074219 Z M-77.67504883 43.26074219 C-81.03015369 44.529108 -84.38395669 45.80088265 -87.73754883 47.07324219 C-88.68049805 47.42966797 -89.62344727 47.78609375 -90.5949707 48.15332031 C-92.44823727 48.85717416 -94.29865985 49.56856715 -96.14599609 50.2878418 C-97.67522478 50.87612023 -99.21310229 51.44336227 -100.76464844 51.9699707 C-105.50169585 53.68564639 -107.67669373 56.35251817 -110.11254883 60.57324219 C-110.49032471 61.19352295 -110.86810059 61.81380371 -111.25732422 62.45288086 C-112.41938035 64.37635951 -113.5511468 66.31476341 -114.67504883 68.26074219 C-115.33504883 69.39511719 -115.99504883 70.52949219 -116.67504883 71.69824219 C-117.9879396 73.98521321 -119.29197337 76.27529087 -120.58520508 78.57324219 C-122.85758167 82.60238671 -125.19984537 86.58912238 -127.55004883 90.57324219 C-128.17592896 91.63454346 -128.17592896 91.63454346 -128.81445312 92.71728516 C-129.66784825 94.1638561 -130.52144698 95.61030694 -131.37524414 97.05664062 C-132.69378257 99.29250932 -134.00915074 101.53021309 -135.32348633 103.76855469 C-135.75935059 104.51065186 -136.19521484 105.25274902 -136.64428711 106.01733398 C-137.46324276 107.41186903 -138.28195178 108.80654895 -139.1003418 110.20141602 C-141.24502322 113.85082627 -143.40845082 117.48817166 -145.58911133 121.11621094 C-148.68785699 126.27274814 -151.74623836 131.4525052 -154.80004883 136.63574219 C-158.21233175 142.42674903 -161.63538586 148.20997165 -165.11645508 153.95996094 C-165.66221191 154.86246582 -166.20796875 155.7649707 -166.77026367 156.69482422 C-167.80773089 158.40739276 -168.84827195 160.11810413 -169.89233398 161.82666016 C-170.36074707 162.60025879 -170.82916016 163.37385742 -171.31176758 164.17089844 C-171.72128662 164.84258057 -172.13080566 165.5142627 -172.55273438 166.20629883 C-173.96043178 168.68613979 -173.96043178 168.68613979 -175.67504883 173.26074219 C-170.39504883 175.90074219 -165.11504883 178.54074219 -159.67504883 181.26074219 C-156.96501304 178.5507064 -155.75413763 176.77171363 -154.05004883 173.44824219 C-151.6095996 168.85338141 -148.95673641 164.4851921 -146.11254883 160.13574219 C-143.1636933 155.62393848 -140.39988635 151.07460957 -137.84692383 146.32714844 C-136.58165162 144.09605177 -135.18587161 142.00223451 -133.73754883 139.88574219 C-131.5863511 136.73101342 -129.70317582 133.53523493 -127.92114258 130.15917969 C-124.2567494 123.3783823 -120.08649865 116.96742488 -115.88598633 110.51074219 C-112.33986794 105.01191544 -109.05192309 99.44879169 -105.97949219 93.67089844 C-104.04259408 90.09218645 -101.87606598 86.68098167 -99.67504883 83.26074219 C-98.54975338 81.49009658 -97.42477587 79.7192489 -96.30004883 77.94824219 C-94.49774582 75.11772727 -92.69306063 72.28883903 -90.88208008 69.46386719 C-87.03888741 63.45728792 -83.31599309 57.39175752 -79.67504883 51.26074219 C-78.8165332 49.97296875 -78.8165332 49.97296875 -77.94067383 48.65917969 C-77.52301758 47.86769531 -77.10536133 47.07621094 -76.67504883 46.26074219 C-77.17004883 44.77574219 -77.17004883 44.77574219 -77.67504883 43.26074219 Z M-569.67504883 65.26074219 C-568.89007987 66.6886453 -568.10325913 68.1155305 -567.31567383 69.54199219 C-566.87771484 70.33669922 -566.43975586 71.13140625 -565.98852539 71.95019531 C-563.23082427 76.89768764 -563.23082427 76.89768764 -559.67504883 81.26074219 C-558.22912726 81.3121144 -556.78060918 81.29223546 -555.33457947 81.2440033 C-554.3971138 81.21621796 -553.45964813 81.18843262 -552.49377441 81.1598053 C-551.45652222 81.12471359 -550.41927002 81.08962189 -549.35058594 81.0534668 C-547.09744955 80.98737961 -544.8442676 80.92283281 -542.59104919 80.85960388 C-541.38819212 80.82573515 -540.18533504 80.79186642 -538.94602776 80.75697136 C-531.24215346 80.56376838 -523.53630077 80.47827419 -515.83064938 80.38690853 C-509.06121651 80.30259432 -502.29893856 80.16986156 -495.53320312 79.92700195 C-448.68873254 78.28637717 -448.68873254 78.28637717 -440.13985729 86.18953991 C-435.3558002 91.61779901 -432.9062467 98.02193999 -430.84590149 104.88935852 C-428.87430264 110.56643164 -425.50903371 115.3039122 -422.17504883 120.26074219 C-420.93296979 122.22937375 -419.69652641 124.20158257 -418.46801758 126.17871094 C-417.84975098 127.16790527 -417.23148438 128.15709961 -416.59448242 129.17626953 C-413.20219042 134.62758181 -409.84648099 140.10133663 -406.48754883 145.57324219 C-401.63785088 153.46406692 -396.7812215 161.35017246 -391.86254883 169.19824219 C-391.3769751 169.97917236 -390.89140137 170.76010254 -390.39111328 171.56469727 C-389.9421167 172.27779053 -389.49312012 172.99088379 -389.03051758 173.72558594 C-388.4527356 174.64778931 -388.4527356 174.64778931 -387.86328125 175.58862305 C-386.50720306 177.59538836 -386.50720306 177.59538836 -383.67504883 180.26074219 C-378.72504883 177.62074219 -373.77504883 174.98074219 -368.67504883 172.26074219 C-370.58016611 167.81546852 -372.47945982 163.54736835 -374.67504883 159.26074219 C-375.33504883 159.26074219 -375.99504883 159.26074219 -376.67504883 159.26074219 C-376.94293213 158.54233154 -377.21081543 157.8239209 -377.48681641 157.08374023 C-378.68492435 154.23727996 -380.08264119 151.72984343 -381.68676758 149.09277344 C-382.28038086 148.11630859 -382.87399414 147.13984375 -383.4855957 146.13378906 C-384.10499023 145.12380859 -384.72438477 144.11382812 -385.36254883 143.07324219 C-385.96260742 142.08259766 -386.56266602 141.09195313 -387.1809082 140.07128906 C-390.64415705 134.39840561 -394.25161596 128.89076527 -398.14453125 123.50292969 C-399.70295387 121.21986167 -401.01635924 118.89475448 -402.30004883 116.44824219 C-409.28123948 103.2719467 -417.62484788 90.74838203 -425.77270508 78.26855469 C-427.17363716 76.0535286 -428.50399772 73.84232119 -429.79614258 71.56542969 C-431.01569826 69.42043154 -432.30635117 67.31378867 -433.67504883 65.26074219 C-436.1449044 64.81268515 -436.1449044 64.81268515 -439.0786438 64.89997864 C-440.22571808 64.89585464 -441.37279236 64.89173065 -442.55462646 64.88748169 C-444.4513913 64.90366043 -444.4513913 64.90366043 -446.38647461 64.92016602 C-447.72665386 64.9210119 -449.0668345 64.92053789 -450.40701294 64.9188385 C-454.05152743 64.91797562 -457.6957474 64.9356484 -461.34019327 64.95656037 C-465.14652938 64.97527859 -468.95287179 64.97707377 -472.75924683 64.9806366 C-479.96993648 64.98997139 -487.18049014 65.01460445 -494.39111984 65.04468507 C-502.59897152 65.07818458 -510.8068296 65.09470386 -519.0147326 65.10977137 C-535.90158342 65.14115285 -552.78830176 65.19394107 -569.67504883 65.26074219 Z M-143.98754883 70.38574219 C-145.41357422 71.09730469 -145.41357422 71.09730469 -146.8684082 71.82324219 C-156.42890159 76.76717308 -160.52304899 83.36522263 -165.61254883 92.57324219 C-168.48400664 97.74186624 -171.34046451 102.85686117 -174.67895508 107.74121094 C-177.45145847 111.81635371 -179.79761792 116.04316151 -182.12133789 120.38671875 C-184.81514381 125.36966711 -187.68986136 130.2470139 -190.55004883 135.13574219 C-191.16066162 136.1835083 -191.77127441 137.23127441 -192.40039062 138.31079102 C-196.2438371 144.88506712 -200.17526553 151.38367753 -204.31958008 157.77246094 C-205.70245294 160.31104888 -206.27977031 162.41165677 -206.67504883 165.26074219 C-204.94832849 165.62664965 -203.21851228 165.97796414 -201.48754883 166.32324219 C-200.52461914 166.52046875 -199.56168945 166.71769531 -198.56958008 166.92089844 C-195.5446801 167.27604864 -193.54673579 167.27514356 -190.67504883 166.26074219 C-189.20670972 164.51889812 -189.20670972 164.51889812 -188.23754883 162.26074219 C-186.57538442 158.96757895 -184.83957469 155.91835242 -182.73754883 152.88574219 C-179.91897679 148.7407833 -177.54002681 144.43831827 -175.17504883 140.02246094 C-171.53847584 133.32699973 -167.53407198 126.90104082 -163.16723633 120.65917969 C-161.93704154 118.6818509 -160.91117609 116.75845894 -159.89379883 114.67089844 C-157.30143819 109.39538933 -154.30088325 104.37418584 -151.30004883 99.32324219 C-150.74833008 98.38544922 -150.19661133 97.44765625 -149.62817383 96.48144531 C-146.55787869 91.29581772 -143.36158235 86.23846221 -139.98754883 81.24584961 C-138.30295481 78.69796383 -136.80864706 76.07525103 -135.36254883 73.38574219 C-134.87141602 72.48082031 -134.3802832 71.57589844 -133.87426758 70.64355469 C-132.57870573 68.2117363 -132.57870573 68.2117363 -131.67504883 65.26074219 C-135.99551607 65.26074219 -140.2234113 68.43938307 -143.98754883 70.38574219 Z M-472.67504883 98.26074219 C-471.43384004 102.49437018 -469.92557408 105.66123547 -467.30004883 109.19824219 C-465.26052643 112.01572674 -463.29190145 114.77631548 -461.61254883 117.82324219 C-459.65132386 121.30283487 -457.4965307 124.56423599 -455.23754883 127.85449219 C-453.65137028 130.29720715 -452.21984735 132.80665797 -450.78686523 135.34130859 C-448.74960485 138.85842346 -446.54585968 142.27062375 -444.36254883 145.69824219 C-443.30745591 147.36334995 -442.25279043 149.02872861 -441.19848633 150.69433594 C-440.63613281 151.58233887 -440.0737793 152.4703418 -439.49438477 153.38525391 C-436.14977885 158.67145473 -432.81484735 163.96363188 -429.48754883 169.26074219 C-428.82779053 170.30544678 -428.16803223 171.35015137 -427.48828125 172.42651367 C-426.87573486 173.40305908 -426.26318848 174.37960449 -425.63208008 175.38574219 C-425.08527588 176.25457031 -424.53847168 177.12339844 -423.97509766 178.01855469 C-422.67504883 180.26074219 -422.67504883 180.26074219 -421.67504883 183.26074219 C-421.01504883 183.26074219 -420.35504883 183.26074219 -419.67504883 183.26074219 C-419.42754883 183.94136719 -419.18004883 184.62199219 -418.92504883 185.32324219 C-416.68991468 190.57580743 -413.62971579 195.3855417 -410.67504883 200.26074219 C-407.22303244 198.78352797 -405.02542947 196.82280218 -402.42504883 194.13574219 C-401.36543945 193.0490625 -401.36543945 193.0490625 -400.28442383 191.94042969 C-399.75333008 191.38613281 -399.22223633 190.83183594 -398.67504883 190.26074219 C-402.48792755 180.21020472 -409.1653143 171.35393719 -414.99926758 162.38183594 C-417.71662623 158.20238392 -420.40014934 154.00221074 -423.06958008 149.79199219 C-424.16770569 148.06064085 -425.26944203 146.3315758 -426.37426758 144.60449219 C-429.54558357 139.64441144 -432.66571102 134.65813861 -435.73754883 129.63574219 C-438.51862493 125.09564889 -441.39580987 120.64671376 -444.37817383 116.23730469 C-445.55497991 114.44373879 -446.63150558 112.63398786 -447.67504883 110.76074219 C-448.16424805 109.93896484 -448.16424805 109.93896484 -448.66333008 109.10058594 C-449.67504883 107.26074219 -449.67504883 107.26074219 -450.65551758 104.82714844 C-452.07637975 101.87966414 -453.04621561 100.24893538 -455.67504883 98.26074219 C-461.2515784 97.12095189 -467.05333855 97.75366142 -472.67504883 98.26074219 Z M-200.11254883 107.69824219 C-201.37320514 108.79971976 -202.63493799 109.89996635 -203.89770508 110.99902344 C-204.52950684 111.54896973 -205.16130859 112.09891602 -205.81225586 112.66552734 C-209.37848587 115.71949155 -213.07125854 118.61568528 -216.76098633 121.51855469 C-217.39262695 122.09347656 -218.02426758 122.66839844 -218.67504883 123.26074219 C-218.67504883 123.92074219 -218.67504883 124.58074219 -218.67504883 125.26074219 C-219.23353516 125.49470703 -219.79202148 125.72867188 -220.36743164 125.96972656 C-223.25445523 127.58489592 -225.25396803 129.58025584 -227.59692383 131.91699219 C-228.06060364 132.37875854 -228.52428345 132.8405249 -229.00201416 133.31628418 C-229.98272601 134.29563776 -230.96092757 135.27751072 -231.93676758 136.26171875 C-233.39953368 137.73504287 -234.87245688 139.19757721 -236.34692383 140.65917969 C-242.18582432 146.48871111 -248.00025818 152.43224482 -252.67504883 159.26074219 C-252.67504883 159.92074219 -252.67504883 160.58074219 -252.67504883 161.26074219 C-253.33504883 161.26074219 -253.99504883 161.26074219 -254.67504883 161.26074219 C-256.11579597 163.04287119 -257.48015532 164.88734494 -258.80004883 166.76074219 C-259.52450195 167.78167969 -260.24895508 168.80261719 -260.99536133 169.85449219 C-261.5496582 170.64855469 -262.10395508 171.44261719 -262.67504883 172.26074219 C-262.34504883 172.92074219 -262.01504883 173.58074219 -261.67504883 174.26074219 C-260.80364258 173.93460937 -259.93223633 173.60847656 -259.03442383 173.27246094 C-250.10566991 169.99665187 -241.12378752 166.79543761 -231.61254883 165.76074219 C-228.28179809 165.19380589 -227.75592572 164.79183519 -225.67504883 162.26074219 C-224.74816087 160.51650757 -223.8796244 158.74080462 -223.05004883 156.94824219 C-220.39396986 151.47751237 -217.33820099 146.48167852 -214.00170898 141.41723633 C-211.08539796 136.96754994 -208.49905171 132.40427911 -205.99926758 127.70605469 C-203.5250397 123.1371265 -200.68855488 118.80801369 -197.84301758 114.46386719 C-197.21008789 113.48933594 -196.5771582 112.51480469 -195.92504883 111.51074219 C-195.33208008 110.60839844 -194.73911133 109.70605469 -194.12817383 108.77636719 C-192.82986542 106.52875802 -192.12489897 104.79410878 -191.67504883 102.26074219 C-195.2022383 102.26074219 -197.5684836 105.44982582 -200.11254883 107.69824219 Z M-346.67504883 182.26074219 C-347.75915039 182.50566406 -348.84325195 182.75058594 -349.96020508 183.00292969 C-362.12257846 186.10179822 -376.08240753 191.89382728 -385.67504883 200.26074219 C-385.67504883 200.92074219 -385.67504883 201.58074219 -385.67504883 202.26074219 C-386.23708008 202.49792969 -386.79911133 202.73511719 -387.37817383 202.97949219 C-390.19398925 204.55021915 -392.15460299 206.47545683 -394.42504883 208.76074219 C-395.22426758 209.55480469 -396.02348633 210.34886719 -396.84692383 211.16699219 C-398.89428492 213.04857681 -398.89428492 213.04857681 -398.67504883 215.26074219 C-399.33504883 215.26074219 -399.99504883 215.26074219 -400.67504883 215.26074219 C-402.23084489 217.56740507 -403.65766333 219.85771783 -405.05004883 222.26074219 C-405.45707031 222.95699707 -405.8640918 223.65325195 -406.28344727 224.37060547 C-407.4218619 226.32957762 -408.54934054 228.29445064 -409.67504883 230.26074219 C-410.07377197 230.94168945 -410.47249512 231.62263672 -410.88330078 232.32421875 C-416.76138242 242.54577155 -419.46066659 255.61813731 -419.67504883 267.26074219 C-419.70211914 268.17082031 -419.72918945 269.08089844 -419.75708008 270.01855469 C-419.80022481 272.77197332 -419.75691928 275.50833544 -419.67504883 278.26074219 C-419.65829102 279.17082031 -419.6415332 280.08089844 -419.62426758 281.01855469 C-418.75359739 299.27775233 -411.12495945 316.50267955 -399.33911133 330.30761719 C-397.67504883 332.26074219 -397.67504883 332.26074219 -395.67504883 335.26074219 C-395.01504883 335.26074219 -394.35504883 335.26074219 -393.67504883 335.26074219 C-393.67504883 335.92074219 -393.67504883 336.58074219 -393.67504883 337.26074219 C-378.12094935 353.72723297 -356.25541541 362.11949122 -334.05004883 363.48339844 C-317.12599688 363.89574292 -299.1106776 360.5171759 -284.67504883 351.26074219 C-285.61095387 350.15522329 -286.54884741 349.05138765 -287.48754883 347.94824219 C-288.00961914 347.33335937 -288.53168945 346.71847656 -289.06958008 346.08496094 C-290.54677352 344.40649539 -292.07544013 342.82192184 -293.67504883 341.26074219 C-296.9127164 342.31298415 -300.07902735 343.42375106 -303.23754883 344.69824219 C-321.83234615 351.53610387 -341.64113587 351.42713438 -359.97973633 343.90527344 C-375.73506732 336.42850695 -387.99087749 325.41084545 -396.67504883 310.26074219 C-397.1777832 309.47699219 -397.68051758 308.69324219 -398.19848633 307.88574219 C-403.07474332 299.21684086 -405.47712498 289.14279717 -405.67504883 279.26074219 C-405.7137207 278.24625 -405.75239258 277.23175781 -405.79223633 276.18652344 C-406.30002844 252.79987546 -398.87835765 233.19676138 -382.70629883 216.19042969 C-377.54706081 211.47522445 -371.68607223 207.79116016 -365.67504883 204.26074219 C-364.88356445 203.79539062 -364.09208008 203.33003906 -363.27661133 202.85058594 C-349.75384839 195.50516487 -335.71225244 194.56606612 -320.67504883 194.26074219 C-319.83435468 192.66042082 -319.00273378 191.05533047 -318.17504883 189.44824219 C-317.71098633 188.55492187 -317.24692383 187.66160156 -316.76879883 186.74121094 C-315.47331742 184.25506192 -315.47331742 184.25506192 -315.67504883 181.26074219 C-323.60877249 177.29388036 -338.45135747 180.36044697 -346.67504883 182.26074219 Z M-256.67504883 189.26074219 C-254.88188139 193.2300837 -252.90486139 195.7933627 -249.35083008 198.33105469 C-245.13226516 199.79677505 -241.87297592 198.30581733 -237.72631836 197.00463867 C-231.1143301 195.07133941 -224.79164243 194.81610171 -217.92504883 194.82324219 C-216.89645752 194.81405762 -215.86786621 194.80487305 -214.80810547 194.79541016 C-197.57922551 194.97440435 -179.26446088 201.7482195 -166.37036133 213.33105469 C-165.20001883 214.53053435 -164.05289063 215.75372161 -162.94458008 217.01074219 C-161.73446508 218.49461027 -161.73446508 218.49461027 -159.67504883 218.26074219 C-159.2805957 219.12699219 -159.2805957 219.12699219 -158.87817383 220.01074219 C-157.61170593 222.37920163 -156.15183092 224.20727159 -154.42504883 226.26074219 C-150.26548054 231.56807516 -147.32811065 237.07269416 -144.67504883 243.26074219 C-144.18520508 244.38609375 -143.69536133 245.51144531 -143.19067383 246.67089844 C-136.37163078 264.88693758 -137.72716286 286.09984269 -145.18286133 303.85058594 C-154.49323952 323.79211691 -169.34258306 337.83432039 -189.99536133 345.45214844 C-210.65886504 351.68734562 -232.18912114 350.54798431 -251.35864258 340.32080078 C-253.14477719 339.32549836 -254.91076438 338.29428182 -256.67504883 337.26074219 C-257.96282227 336.51824219 -257.96282227 336.51824219 -259.27661133 335.76074219 C-273.69897862 326.79135475 -283.90618563 313.65266494 -292.08520508 299.04589844 C-294.00787889 295.67767625 -296.14651104 292.49754224 -298.33129883 289.29589844 C-299.60522769 287.36648874 -300.74698723 285.40981039 -301.86254883 283.38574219 C-303.32480804 280.86460562 -304.48355961 279.12350803 -306.67504883 277.26074219 C-309.33598575 283.6469908 -311.02920405 291.21609436 -308.78442383 297.92089844 C-307.2497956 300.8446298 -305.52744111 303.52609096 -303.67504883 306.26074219 C-302.85292057 307.52342872 -302.03133992 308.7864719 -301.21020508 310.04980469 C-285.11833334 334.42153144 -264.35734724 354.778312 -234.94848633 361.42871094 C-211.94756498 365.93106037 -187.2067569 362.62899556 -167.15551758 350.00292969 C-162.44102185 346.69164608 -158.07241606 342.9758758 -153.67504883 339.26074219 C-152.82297852 338.61492187 -151.9709082 337.96910156 -151.09301758 337.30371094 C-146.76676638 333.64841308 -143.86106132 328.90321754 -140.67504883 324.26074219 C-140.04985352 323.36742187 -139.4246582 322.47410156 -138.78051758 321.55371094 C-128.82866374 306.74517897 -125.13149585 290.42134889 -125.30004883 272.76074219 C-125.28264648 270.93736328 -125.28264648 270.93736328 -125.26489258 269.07714844 C-125.30268571 257.2730935 -127.51415298 246.85526415 -132.67504883 236.26074219 C-133.12879883 235.12636719 -133.58254883 233.99199219 -134.05004883 232.82324219 C-136.20370442 228.10176647 -138.63079622 223.47520888 -141.67504883 219.26074219 C-142.33504883 219.26074219 -142.99504883 219.26074219 -143.67504883 219.26074219 C-143.94188477 218.67808594 -144.2087207 218.09542969 -144.48364258 217.49511719 C-153.3186158 200.9259215 -173.61907131 190.13950367 -190.67504883 184.26074219 C-212.37729594 177.9356054 -236.30689798 178.55318625 -256.67504883 189.26074219 Z M-276.67504883 195.26074219 C-278.27282406 197.43825397 -278.27282406 197.43825397 -279.80004883 200.13574219 C-280.33887695 201.04066406 -280.87770508 201.94558594 -281.43286133 202.87792969 C-282.82913813 205.10846241 -282.82913813 205.10846241 -282.67504883 207.26074219 C-281.35172348 208.16617532 -280.02145692 209.06236146 -278.66723633 209.92089844 C-276.15713694 211.60906332 -273.79874232 213.44836834 -271.42504883 215.32324219 C-270.57426758 215.99484375 -269.72348633 216.66644531 -268.84692383 217.35839844 C-266.67504883 219.26074219 -266.67504883 219.26074219 -264.67504883 222.26074219 C-264.01504883 222.26074219 -263.35504883 222.26074219 -262.67504883 222.26074219 C-262.44817383 222.79699219 -262.22129883 223.33324219 -261.98754883 223.88574219 C-260.24122827 227.04575082 -258.03476393 229.52844049 -255.67504883 232.26074219 C-251.63984286 230.67111559 -247.65693601 228.97841901 -243.67504883 227.26074219 C-245.09862257 223.05853519 -247.15125236 220.15476418 -249.98754883 216.76074219 C-250.74680664 215.84292969 -251.50606445 214.92511719 -252.28833008 213.97949219 C-254.65743803 211.28080293 -257.03777928 208.69922257 -259.67504883 206.26074219 C-260.33504883 206.26074219 -260.99504883 206.26074219 -261.67504883 206.26074219 C-261.67504883 205.60074219 -261.67504883 204.94074219 -261.67504883 204.26074219 C-263.76954563 202.62644468 -265.85286974 201.11906984 -268.05004883 199.63574219 C-268.65333008 199.21550781 -269.25661133 198.79527344 -269.87817383 198.36230469 C-272.99218754 196.02713896 -272.99218754 196.02713896 -276.67504883 195.26074219 Z M-374.27661133 227.56933594 C-383.64746162 237.11729852 -389.44882345 250.16751833 -391.67504883 263.26074219 C-391.8271582 264.05222656 -391.97926758 264.84371094 -392.13598633 265.65917969 C-394.54260636 281.75679368 -389.43680195 297.79693347 -380.10766602 310.79736328 C-369.81398683 324.61122659 -355.48736019 333.51316938 -338.36254883 336.07324219 C-325.98683851 336.70251559 -316.09676433 335.26685579 -304.67504883 330.26074219 C-305.62649481 328.44461731 -306.58641815 326.63293137 -307.55004883 324.82324219 C-308.0837207 323.81390625 -308.61739258 322.80457031 -309.16723633 321.76464844 C-310.43158997 319.15933777 -310.43158997 319.15933777 -312.67504883 318.26074219 C-314.02477674 318.69157052 -315.35534157 319.18273154 -316.67504883 319.69824219 C-329.25024442 323.6052755 -343.04305088 322.30126914 -354.67504883 316.26074219 C-359.08938658 313.33906386 -363.17415475 310.3106569 -366.31958008 306.01464844 C-366.76688477 305.43585938 -367.21418945 304.85707031 -367.67504883 304.26074219 C-368.33504883 304.26074219 -368.99504883 304.26074219 -369.67504883 304.26074219 C-369.95348633 303.54402344 -370.23192383 302.82730469 -370.51879883 302.08886719 C-371.64256107 299.34020549 -372.89133983 296.6877451 -374.17504883 294.01074219 C-379.87100368 281.40907215 -380.49557397 268.33666058 -375.67504883 255.26074219 C-370.76677082 242.6724527 -361.23899011 232.89032833 -349.10083008 227.01464844 C-345.12973795 225.35445219 -341.63115144 224.24926894 -337.36254883 223.76074219 C-332.80610407 221.90727313 -332.54915521 220.67040427 -330.67504883 216.26074219 C-329.17315396 212.35256731 -329.17315396 212.35256731 -328.67504883 208.26074219 C-346.64292791 208.26074219 -361.19530167 215.96114673 -374.27661133 227.56933594 Z M-228.42504883 209.13574219 C-229.10954102 209.214375 -229.7940332 209.29300781 -230.49926758 209.37402344 C-232.23534207 209.59747857 -233.95784342 209.92148941 -235.67504883 210.26074219 C-236.00504883 210.92074219 -236.33504883 211.58074219 -236.67504883 212.26074219 C-236.01504883 212.26074219 -235.35504883 212.26074219 -234.67504883 212.26074219 C-234.21098633 213.43636719 -234.21098633 213.43636719 -233.73754883 214.63574219 C-232.74629844 217.18404347 -232.74629844 217.18404347 -231.67504883 219.26074219 C-231.01504883 219.26074219 -230.35504883 219.26074219 -229.67504883 219.26074219 C-229.34504883 220.58074219 -229.01504883 221.90074219 -228.67504883 223.26074219 C-227.48008789 223.23753906 -226.28512695 223.21433594 -225.05395508 223.19042969 C-207.37609046 222.9394293 -193.56921805 226.02944434 -180.24926758 238.56152344 C-178.67504883 240.26074219 -178.67504883 240.26074219 -177.67504883 242.26074219 C-177.01504883 242.26074219 -176.35504883 242.26074219 -175.67504883 242.26074219 C-175.39661133 242.99164063 -175.11817383 243.72253906 -174.83129883 244.47558594 C-173.76179187 247.05179696 -172.52683427 249.38755561 -171.17504883 251.82324219 C-165.94747655 262.17044278 -165.46650238 274.02120057 -168.30004883 285.13574219 C-168.47318604 285.82756592 -168.64632324 286.51938965 -168.82470703 287.23217773 C-170.23963094 292.47686978 -172.33873026 296.83187867 -175.40551758 301.34277344 C-176.84472975 303.33656005 -176.84472975 303.33656005 -177.67504883 306.26074219 C-178.98705287 306.96846221 -180.3233001 307.63225385 -181.67504883 308.26074219 C-182.62379883 309.16824219 -183.57254883 310.07574219 -184.55004883 311.01074219 C-192.96190182 318.45340342 -204.44904389 321.45856283 -215.42504883 321.44824219 C-216.13371094 321.44888672 -216.84237305 321.44953125 -217.57250977 321.45019531 C-222.91351379 321.39641861 -227.53857602 320.63046827 -232.67504883 319.26074219 C-233.99504883 319.26074219 -235.31504883 319.26074219 -236.67504883 319.26074219 C-237.33504883 320.33324219 -237.99504883 321.40574219 -238.67504883 322.51074219 C-239.04629883 323.11402344 -239.41754883 323.71730469 -239.80004883 324.33886719 C-240.95128906 326.51553603 -240.95128906 326.51553603 -240.67504883 330.26074219 C-222.97612119 337.56731352 -207.26931715 337.47794471 -189.67504883 330.26074219 C-172.73637626 322.12532239 -162.21994204 310.01015813 -155.69848633 292.66308594 C-151.37641655 278.62645745 -151.93483508 261.75800155 -157.67504883 248.26074219 C-158.05661133 247.34292969 -158.43817383 246.42511719 -158.83129883 245.47949219 C-159.73738507 243.38254975 -160.67705918 241.31511449 -161.67504883 239.26074219 C-162.33504883 239.26074219 -162.99504883 239.26074219 -163.67504883 239.26074219 C-163.92254883 238.53886719 -164.17004883 237.81699219 -164.42504883 237.07324219 C-165.79774475 233.98467637 -167.39858179 231.75062801 -169.67504883 229.26074219 C-170.33504883 229.26074219 -170.99504883 229.26074219 -171.67504883 229.26074219 C-172.0250293 228.37902344 -172.0250293 228.37902344 -172.38208008 227.47949219 C-177.25108143 219.12422704 -191.70262255 212.9394322 -200.67504883 210.26074219 C-210.09589942 208.53729778 -218.90935664 207.9073195 -228.42504883 209.13574219 Z M-290.67504883 222.26074219 C-291.34859382 223.6950322 -292.01364583 225.13331275 -292.67504883 226.57324219 C-293.04629883 227.37375 -293.41754883 228.17425781 -293.80004883 228.99902344 C-294.8554555 231.32288177 -294.8554555 231.32288177 -294.67504883 234.26074219 C-292.84613307 235.9687077 -292.84613307 235.9687077 -290.48754883 237.57324219 C-287.52934376 239.75933712 -285.01414135 241.80450109 -282.73754883 244.69824219 C-282.05692383 245.54386719 -281.37629883 246.38949219 -280.67504883 247.26074219 C-280.01504883 247.26074219 -279.35504883 247.26074219 -278.67504883 247.26074219 C-278.34504883 248.58074219 -278.01504883 249.90074219 -277.67504883 251.26074219 C-277.01504883 251.26074219 -276.35504883 251.26074219 -275.67504883 251.26074219 C-275.67504883 251.92074219 -275.67504883 252.58074219 -275.67504883 253.26074219 C-271.91155992 252.00624589 -270.28448437 250.21352452 -267.67504883 247.26074219 C-266.67930613 245.4352155 -266.67930613 245.4352155 -266.67504883 243.26074219 C-271.26279915 234.72569671 -278.86806544 226.53841984 -287.67504883 222.26074219 C-288.66504883 222.26074219 -289.65504883 222.26074219 -290.67504883 222.26074219 Z M-225.47973633 242.96386719 C-227.35980311 246.57654454 -229.16368924 250.22324175 -230.94458008 253.88574219 C-233.87180886 259.59482946 -237.26500177 265.01869865 -240.60522461 270.49267578 C-242.12198682 272.9993832 -243.58626419 275.53531343 -245.05004883 278.07324219 C-248.06301884 283.24937015 -251.13478077 288.3880899 -254.23754883 293.51074219 C-254.68469238 294.25557861 -255.13183594 295.00041504 -255.5925293 295.76782227 C-258.33132814 300.26827816 -261.26568203 304.4575543 -264.57202148 308.56201172 C-265.93796494 310.29189605 -265.93796494 310.29189605 -265.48754883 312.88574219 C-262.95987741 316.19786336 -259.95279136 318.7104131 -256.67504883 321.26074219 C-248.77992872 311.23785921 -242.83848644 300.10433721 -236.77270508 288.92089844 C-236.27448242 288.00244141 -235.77625977 287.08398438 -235.26293945 286.13769531 C-234.24853544 284.26604848 -233.23550716 282.39365535 -232.22387695 280.52050781 C-228.38242439 273.44727838 -224.31008675 266.54222169 -220.09179688 259.68823242 C-216.22217177 253.39934143 -212.89381703 246.90373188 -209.67504883 240.26074219 C-216.0749248 236.74009772 -221.4643119 236.3158135 -225.47973633 242.96386719 Z M-246.67504883 242.26074219 C-248.86646513 243.46948128 -250.68338096 244.71719959 -252.67504883 246.26074219 C-252.67504883 246.92074219 -252.67504883 247.58074219 -252.67504883 248.26074219 C-253.33504883 248.26074219 -253.99504883 248.26074219 -254.67504883 248.26074219 C-255.99409111 249.70786818 -255.99409111 249.70786818 -257.28442383 251.62792969 C-257.78893066 252.34360107 -258.2934375 253.05927246 -258.81323242 253.79663086 C-259.34513184 254.5685376 -259.87703125 255.34044434 -260.42504883 256.13574219 C-260.9685498 256.91860596 -261.51205078 257.70146973 -262.07202148 258.50805664 C-267.4013288 266.23483229 -272.21840783 273.91666489 -276.17504883 282.44824219 C-276.70098633 283.57617188 -277.22692383 284.70410156 -277.76879883 285.86621094 C-279.27135669 291.49432638 -276.87418061 296.07707443 -274.67504883 301.26074219 C-268.20935384 295.32246039 -264.23510882 286.58952471 -260.13598633 278.94433594 C-252.84152323 265.54514838 -244.16501841 252.9188256 -235.67504883 240.26074219 C-239.91059349 238.84889397 -242.80591692 240.468263 -246.67504883 242.26074219 Z M-354.38989258 249.90136719 C-362.14939957 258.35192442 -363.57538538 266.75875865 -363.12036133 277.93652344 C-362.41017838 287.13517798 -357.17694647 294.00353962 -350.67504883 300.26074219 C-350.34504883 300.26074219 -350.01504883 300.26074219 -349.67504883 300.26074219 C-349.66086914 299.20242188 -349.64668945 298.14410156 -349.63208008 297.05371094 C-349.21118004 281.33776139 -346.97950598 265.25435656 -342.52270508 250.14746094 C-341.70206189 247.35273599 -341.49975863 245.15303047 -341.67504883 242.26074219 C-346.96459677 242.26074219 -350.69488161 246.36627697 -354.38989258 249.90136719 Z M-195.67504883 247.26074219 C-196.00714355 247.84976318 -196.33923828 248.43878418 -196.68139648 249.0456543 C-198.21739005 251.76521003 -199.75868575 254.4817264 -201.30004883 257.19824219 C-201.82211914 258.12443359 -202.34418945 259.050625 -202.88208008 260.00488281 C-205.86353516 265.25003527 -209.00070562 270.30633182 -212.38891602 275.29711914 C-213.98487143 277.7337686 -215.26098226 280.24570368 -216.48754883 282.88574219 C-219.24977767 288.6017144 -222.4279477 293.97740426 -225.77978516 299.36083984 C-227.94968666 302.57044473 -227.94968666 302.57044473 -228.67504883 306.26074219 C-219.89167903 308.21962322 -211.94887528 307.8197043 -203.67504883 304.26074219 C-202.97379883 303.95910156 -202.27254883 303.65746094 -201.55004883 303.34667969 C-192.77408286 299.25787736 -187.17180631 293.44152644 -183.55786133 284.49511719 C-182.54285552 280.77642334 -182.29094115 277.27619724 -182.30004883 273.44824219 C-182.30166016 272.7426416 -182.30327148 272.03704102 -182.30493164 271.31005859 C-182.44220845 265.45695231 -183.60964583 261.19066866 -186.67504883 256.26074219 C-187.31442383 255.14699219 -187.95379883 254.03324219 -188.61254883 252.88574219 C-190.76957485 250.14043634 -192.66957951 248.95410381 -195.67504883 247.26074219 Z M-300.67504883 248.26074219 C-302.57964625 251.94444031 -303.64529452 255.09018042 -303.67504883 259.26074219 C-300.97393991 264.18998104 -297.41336749 268.08939248 -293.67504883 272.26074219 C-292.60804221 273.67953483 -291.5591516 275.1126987 -290.55004883 276.57324219 C-289.93129883 277.46011719 -289.31254883 278.34699219 -288.67504883 279.26074219 C-285.63022108 275.52390813 -283.50647439 272.39306094 -283.89770508 267.44433594 C-285.78302167 259.72306446 -292.2185601 252.71879393 -298.67504883 248.26074219 C-299.33504883 248.26074219 -299.99504883 248.26074219 -300.67504883 248.26074219 Z M-277.36254883 364.76074219 C-278.29647461 365.45683594 -278.29647461 365.45683594 -279.24926758 366.16699219 C-279.71977539 366.52792969 -280.1902832 366.88886719 -280.67504883 367.26074219 C-279.13667037 370.45698481 -277.38638351 373.47679793 -275.55004883 376.51074219 C-274.74180664 377.84878906 -274.74180664 377.84878906 -273.91723633 379.21386719 C-273.50731445 379.88933594 -273.09739258 380.56480469 -272.67504883 381.26074219 C-268.08287976 377.19339244 -265.45825813 372.69688291 -262.67504883 367.26074219 C-263.94043252 366.41915683 -265.21258662 365.5877447 -266.48754883 364.76074219 C-267.19524414 364.29667969 -267.90293945 363.83261719 -268.63208008 363.35449219 C-272.36931222 361.35367957 -274.23536608 362.40060427 -277.36254883 364.76074219 Z M-305.48754883 375.69824219 C-306.46336914 375.98570312 -307.43918945 376.27316406 -308.44458008 376.56933594 C-309.54866211 376.91158203 -309.54866211 376.91158203 -310.67504883 377.26074219 C-309.4184577 382.56634916 -306.68994854 386.2073615 -303.54614258 390.53417969 C-301.05653739 394.1620386 -299.06088406 397.98859479 -297.00708008 401.87402344 C-295.69958296 404.37096238 -295.69958296 404.37096238 -293.67504883 406.76074219 C-291.68945505 409.24273441 -290.34554315 411.64268301 -288.86254883 414.44824219 C-286.32027948 419.23028302 -283.43886972 423.57926943 -280.28051758 427.97167969 C-277.3340457 432.17273205 -274.89521243 436.63540135 -272.67504883 441.26074219 C-268.90674542 440.00464105 -268.46950129 438.78719609 -266.42504883 435.44824219 C-265.81145508 434.45050781 -265.19786133 433.45277344 -264.56567383 432.42480469 C-261.55966014 427.3940793 -258.5994693 422.33931166 -255.67504883 417.26074219 C-251.66253149 410.29257593 -247.54501617 403.43134938 -243.19702148 396.66699219 C-241.46264116 393.9249241 -239.87792939 391.12929356 -238.36254883 388.26074219 C-236.88787406 385.48108126 -235.42323289 382.88301828 -233.67504883 380.26074219 C-233.67504883 379.27074219 -233.67504883 378.28074219 -233.67504883 377.26074219 C-235.61141923 376.75638525 -237.54919029 376.25740345 -239.48754883 375.76074219 C-240.56649414 375.48230469 -241.64543945 375.20386719 -242.75708008 374.91699219 C-245.66438858 374.15103271 -245.66438858 374.15103271 -248.67504883 374.26074219 C-250.02521061 375.76721203 -250.02521061 375.76721203 -251.16333008 377.81152344 C-251.61949707 378.56771973 -252.07566406 379.32391602 -252.5456543 380.10302734 C-253.02147949 380.91819824 -253.49730469 381.73336914 -253.98754883 382.57324219 C-254.47884277 383.39614746 -254.97013672 384.21905273 -255.47631836 385.06689453 C-258.57245219 390.28310676 -261.54600663 395.55691864 -264.39379883 400.91308594 C-266.33250089 404.46540282 -268.49038422 407.85523559 -270.67504883 411.26074219 C-273.76994789 409.19747615 -274.77876687 407.53415596 -276.51928711 404.33837891 C-278.71193616 400.39679813 -281.19213704 396.62760978 -283.61254883 392.82324219 C-284.64267605 391.19965802 -285.67262574 389.5759612 -286.70239258 387.95214844 C-287.45431885 386.78063232 -287.45431885 386.78063232 -288.22143555 385.58544922 C-289.18088737 384.05103534 -290.10561256 382.49428446 -290.99194336 380.91650391 C-293.27064511 376.72064673 -293.27064511 376.72064673 -297.12426758 374.17089844 C-300.11356674 374.27618769 -302.62331022 374.83551972 -305.48754883 375.69824219 Z " fill="#ECECEC" transform="translate(621.675048828125,131.7392578125)"/>
<path d="M0 0 C71.61 0 143.22 0 217 0 C217 0.33 217 0.66 217 1 C145.72 1.33 74.44 1.66 1 2 C0.67 2.66 0.34 3.32 0 4 C0 2.68 0 1.36 0 0 Z " fill="#555555" transform="translate(1,147)"/>
<path d="M0 0 C0.66 0.33 1.32 0.66 2 1 C-7.9 10.9 -17.8 20.8 -28 31 C-28.66 30.67 -29.32 30.34 -30 30 C-29.04882866 28.8274869 -28.08882991 27.66212985 -27.125 26.5 C-26.59132813 25.8503125 -26.05765625 25.200625 -25.5078125 24.53125 C-25.01023437 24.0259375 -24.51265625 23.520625 -24 23 C-23.34 23 -22.68 23 -22 23 C-21.79375 22.46890625 -21.5875 21.9378125 -21.375 21.390625 C-19.42038808 17.99226564 -16.77876283 15.48944072 -14 12.75 C-13.4534375 12.19570312 -12.906875 11.64140625 -12.34375 11.0703125 C-8.2533867 7 -8.2533867 7 -6 7 C-6 6.34 -6 5.68 -6 5 C-4.04072937 3.2856382 -2.04119788 1.61594832 0 0 Z " fill="#ACABAD" transform="translate(376,222)"/>
<path d="M0 0 C0 3 0 3 -2.11132812 5.4519043 C-3.07697101 6.41707201 -4.05087603 7.37401783 -5.03125 8.32421875 C-5.54175903 8.83048294 -6.05226807 9.33674713 -6.57824707 9.85835266 C-8.21193407 11.47523405 -9.85573744 13.08138126 -11.5 14.6875 C-12.6087547 15.78121031 -13.71683647 16.87560326 -14.82421875 17.97070312 C-17.54173139 20.65512158 -20.26836361 23.3299581 -23 26 C-23.66 25.67 -24.32 25.34 -25 25 C-24.04882866 23.8274869 -23.08882991 22.66212985 -22.125 21.5 C-21.59132813 20.8503125 -21.05765625 20.200625 -20.5078125 19.53125 C-20.01023437 19.0259375 -19.51265625 18.520625 -19 18 C-18.34 18 -17.68 18 -17 18 C-16.773125 17.443125 -16.54625 16.88625 -16.3125 16.3125 C-12.60761056 9.78483765 -5.52741829 4.92637863 0 0 Z " fill="#ACAAAC" transform="translate(395,243)"/>
<path d="M0 0 C1.98 0.33 3.96 0.66 6 1 C6.495 2.485 6.495 2.485 7 4 C-12.8 3.505 -12.8 3.505 -33 3 C-33 2.67 -33 2.34 -33 2 C-22.11 1.67 -11.22 1.34 0 1 C0 0.67 0 0.34 0 0 Z " fill="#7B7B7B" transform="translate(730,144)"/>
<path d="M0 0 C10.23 0 20.46 0 31 0 C31 0.33 31 0.66 31 1 C21.1 1.33 11.2 1.66 1 2 C0.67 2.66 0.34 3.32 0 4 C0 2.68 0 1.36 0 0 Z " fill="#656565" transform="translate(1,147)"/>
<path d="M0 0 C-1.46966358 3.39859703 -3.38037514 5.64963709 -6 8.25 C-6.70125 8.95640625 -7.4025 9.6628125 -8.125 10.390625 C-10 12 -10 12 -12 12 C-10.53033642 8.60140297 -8.61962486 6.35036291 -6 3.75 C-5.29875 3.04359375 -4.5975 2.3371875 -3.875 1.609375 C-2 0 -2 0 0 0 Z " fill="#B6B5B6" transform="translate(264,364)"/>
<path d="M0 0 C0.66 0.33 1.32 0.66 2 1 C-1.63 4.63 -5.26 8.26 -9 12 C-9.66 11.67 -10.32 11.34 -11 11 C-9.625 9 -9.625 9 -8 7 C-7.34 7 -6.68 7 -6 7 C-5.7525 6.401875 -5.505 5.80375 -5.25 5.1875 C-3.83629988 2.71352479 -2.34944617 1.56629745 0 0 Z " fill="#A0A0A0" transform="translate(245,342)"/>
</svg>
