<?xml version="1.0" encoding="UTF-8"?>
<svg version="1.1" xmlns="http://www.w3.org/2000/svg" width="1024" height="1024">
<path d="M0 0 C14.49605395 12.60156232 21.70628033 29.60330152 26.1875 47.8125 C26.6515625 49.69001953 26.6515625 49.69001953 27.125 51.60546875 C29.70130343 63.55803034 29.9112267 75.62594737 30.1875 87.8125 C30.56447021 87.40523682 30.94144043 86.99797363 31.32983398 86.57836914 C35.59766827 81.97269441 39.88699058 77.38766381 44.1875 72.8125 C45.00476563 71.93851562 45.82203125 71.06453125 46.6640625 70.1640625 C65.45985707 50.66430558 93.61575264 33.22183456 121.28198242 32.46899414 C136.4841261 32.29284427 149.29050655 34.63714939 161.1875 44.8125 C162.15236328 45.59560547 162.15236328 45.59560547 163.13671875 46.39453125 C168.53025973 51.20308948 171.31219279 57.27852014 174.1875 63.8125 C174.54972656 64.62847656 174.91195313 65.44445312 175.28515625 66.28515625 C187.2777834 99.8748955 170.06360489 142.01424912 157.1875 172.8125 C156.85492187 173.61300781 156.52234375 174.41351562 156.1796875 175.23828125 C151.27787525 186.99910417 146.07733556 198.51438775 140.1875 209.8125 C139.68597412 210.78437256 139.68597412 210.78437256 139.17431641 211.77587891 C134.39485019 221.02887111 129.38617115 230.1554709 124.3125 239.25 C123.75280518 240.26392822 123.19311035 241.27785645 122.61645508 242.32250977 C122.08560303 243.26666748 121.55475098 244.2108252 121.0078125 245.18359375 C120.53617676 246.02849365 120.06454102 246.87339355 119.57861328 247.74389648 C118.1875 249.8125 118.1875 249.8125 115.1875 251.8125 C113.15211487 252.11547852 113.15211487 252.11547852 110.76391602 252.19140625 C109.39402527 252.24167969 109.39402527 252.24167969 107.99645996 252.29296875 C106.98829224 252.32003906 105.98012451 252.34710937 104.94140625 252.375 C103.86580444 252.41109375 102.79020264 252.4471875 101.68200684 252.484375 C98.03824393 252.60350172 94.39421416 252.70815315 90.75 252.8125 C88.13922678 252.89406022 85.52846865 252.97610465 82.91772461 253.05859375 C58.20966479 253.82547699 33.49519801 254.37323143 8.78186035 254.9375 C-13.65028682 255.44976812 -36.07545961 256.02756506 -58.5 256.8125 C-79.35034999 257.53827768 -100.20121692 258.21094277 -121.05581665 258.80175781 C-124.15011 258.88953402 -127.2443178 258.97966533 -130.33847046 259.07226562 C-138.27345969 259.30858384 -146.2080499 259.51829425 -154.14512157 259.67131424 C-158.00014103 259.74696275 -161.85363711 259.84075059 -165.70751953 259.96179199 C-169.84147266 260.09101582 -173.9749349 260.18436889 -178.11029053 260.25484848 C-179.68323382 260.28765328 -181.25597757 260.33267249 -182.82818604 260.39087296 C-196.52757061 260.8848527 -196.52757061 260.8848527 -201.6328125 256.49658203 C-202.73259272 255.30414176 -203.79577569 254.07650238 -204.8125 252.8125 C-205.87334146 251.66513097 -206.9356352 250.51910133 -208 249.375 C-209.28255801 247.86404125 -210.5511093 246.34117423 -211.8125 244.8125 C-212.27817383 244.24853516 -212.74384766 243.68457031 -213.22363281 243.10351562 C-227.27435315 226.04630928 -240.28391537 208.68536319 -251.8125 189.8125 C-252.44414062 188.77867187 -253.07578125 187.74484375 -253.7265625 186.6796875 C-255.47445433 183.75057197 -257.1563139 180.79439469 -258.8125 177.8125 C-259.43640625 176.70777344 -260.0603125 175.60304688 -260.703125 174.46484375 C-275.79522993 146.70494822 -285.82244831 109.87463388 -278.25 78.4375 C-275.30680147 69.42984614 -271.21992824 59.87642703 -264.8125 52.8125 C-264.1525 52.8125 -263.4925 52.8125 -262.8125 52.8125 C-262.8125 52.1525 -262.8125 51.4925 -262.8125 50.8125 C-257.07261677 45.18599718 -250.22965939 41.70356797 -242.8125 38.8125 C-241.94882812 38.44640625 -241.08515625 38.0803125 -240.1953125 37.703125 C-223.5913613 33.33164593 -206.27065529 37.01428747 -191.5625 45.0625 C-181.41337733 51.36148632 -166.67599121 61.03407273 -162.8125 72.8125 C-162.1525 72.8125 -161.4925 72.8125 -160.8125 72.8125 C-159.515625 74.49316406 -159.515625 74.49316406 -158.0625 76.828125 C-157.5365625 77.66730469 -157.010625 78.50648438 -156.46875 79.37109375 C-155.9221875 80.25925781 -155.375625 81.14742188 -154.8125 82.0625 C-154.2659375 82.93519531 -153.719375 83.80789063 -153.15625 84.70703125 C-149.06800345 91.2702702 -149.06800345 91.2702702 -147.765625 94.03417969 C-146.93722039 95.99058733 -146.93722039 95.99058733 -144.8125 96.8125 C-144.67714844 96.04550781 -144.54179687 95.27851562 -144.40234375 94.48828125 C-139.93539152 71.45806645 -131.32249685 49.03290789 -117.8125 29.8125 C-117.10351562 28.78640625 -116.39453125 27.7603125 -115.6640625 26.703125 C-100.78465203 5.96863965 -80.29427709 -9.1556705 -54.75927734 -13.54003906 C-34.54310576 -16.26022805 -16.32462786 -12.52767403 0 0 Z " fill="#1A89E8" transform="translate(556.8125,417.1875)"/>
<path d="M0 0 C6.70506402 5.31915559 12.55232544 11.41382266 18 18 C18.69029297 18.82371094 18.69029297 18.82371094 19.39453125 19.6640625 C32.33113729 36.33791029 35.71750864 58.55531217 34 79 C31.53376762 95.8183347 23.37044267 116.81954363 10 128 C9.34 128 8.68 128 8 128 C8 128.66 8 129.32 8 130 C6.05012435 131.57637006 4.10291234 133.05017239 2.0625 134.5 C-2.06353603 137.19693381 -2.06353603 137.19693381 -5 141 C-4.34 141.20625 -3.68 141.4125 -3 141.625 C17.92297296 151.21469594 32.49668163 173.55585159 41 194 C41 194.66 41 195.32 41 196 C42.08796875 195.48050781 43.1759375 194.96101562 44.296875 194.42578125 C62.35860925 185.83448787 79.97943135 178.33283148 100 176 C99.34 174.68 98.68 173.36 98 172 C97.34 172 96.68 172 96 172 C84.58968984 153.87940819 79.03521625 134.85583786 83.921875 113.328125 C84.99042755 109.41177263 86.41391902 105.73591489 88 102 C88.43441406 100.9378125 88.86882812 99.875625 89.31640625 98.78125 C96.39817545 83.12468903 109.47230252 70.93604981 125.125 64 C127.06847113 63.29117432 129.02744416 62.62332764 131 62 C131.96679688 61.68417969 132.93359375 61.36835938 133.9296875 61.04296875 C147.27811293 57.32375098 162.91449128 57.32526302 176 62 C176.99128906 62.35191406 177.98257812 62.70382812 179.00390625 63.06640625 C199.8388944 71.12898787 212.16534471 85.01607493 221 105 C227.27759522 120.02293476 227.15756373 139.80695199 221.26757812 154.87353516 C218.07399149 162.18547003 214.20315678 169.91085677 209 176 C208.34 176 207.68 176 207 176 C206.773125 176.5775 206.54625 177.155 206.3125 177.75 C204.65151778 180.59739809 202.68475439 182.12067193 200 184 C199.34 184 198.68 184 198 184 C198 184.66 198 185.32 198 186 C190.93104033 191.00872186 183.22200893 194.39420583 175 197 C175.66 197.78375 176.32 198.5675 177 199.375 C179 202 179 202 179 204 C179.66 204 180.32 204 181 204 C182.71088092 206.04700089 184.27305061 208.07854833 185.8125 210.25 C186.26318848 210.88534668 186.71387695 211.52069336 187.17822266 212.17529297 C191.0594118 217.80673968 193.75617758 223.53504037 196 230 C196.36738281 231.010625 196.73476563 232.02125 197.11328125 233.0625 C204.04480155 252.82363424 203.76447175 272.50780466 201 293 C200.86319824 294.01658691 200.86319824 294.01658691 200.72363281 295.05371094 C198.75469962 308.98823113 194.88311365 322.49782617 191 336 C190.79681152 336.71333496 190.59362305 337.42666992 190.38427734 338.16162109 C184.70402298 357.69896876 175.69283307 376.60736797 167.1875 395.0625 C166.67316406 396.18422607 166.15882813 397.30595215 165.62890625 398.46166992 C162.59671582 404.95220959 159.25287447 411.13832086 155.58666992 417.29174805 C153.56552525 420.74159539 151.79307883 424.27356381 150.0625 427.875 C133.49966351 461.34682218 133.49966351 461.34682218 115 468 C108.34329618 469.98951688 102.07412223 470.40391366 95.1484375 470.59765625 C93.99630264 470.63652954 92.84416779 470.67540283 91.65711975 470.7154541 C87.8966355 470.83978477 84.13589593 470.95138228 80.375 471.0625 C77.76699191 471.14588675 75.15900043 471.22979467 72.55102539 471.31420898 C54.34041443 471.89167153 36.12680094 472.34669604 17.90966797 472.65844727 C17.02516464 472.6746814 16.14066132 472.69091553 15.22935486 472.7076416 C13.63904436 472.73654265 12.04868227 472.76285707 10.45826721 472.78527832 C6.10194283 472.86578234 1.76389245 473.06749531 -2.58447349 473.34643799 C-12.40731736 473.97084461 -22.22084946 474.27092191 -32.06005859 474.48071289 C-33.79526852 474.52001041 -35.53047244 474.55957444 -37.26567078 474.59938049 C-41.92482185 474.7054659 -46.5840494 474.8077208 -51.24330473 474.90911031 C-56.15513711 475.01655015 -61.06689696 475.12721865 -65.97866821 475.2374115 C-74.22433888 475.42190497 -82.47006103 475.60393664 -90.71582031 475.78442383 C-100.20038621 475.9920521 -109.68486445 476.20336439 -119.1693033 476.41671187 C-128.3523942 476.6232122 -137.53553752 476.82728359 -146.71870804 477.03021049 C-150.59937837 477.11599274 -154.48002998 477.20255862 -158.36066818 477.28978157 C-162.94576483 477.39271289 -167.53090452 477.49347759 -172.11608315 477.59268761 C-173.78196724 477.62905293 -175.44783657 477.66610315 -177.11368752 477.7039566 C-185.81731695 477.90125247 -194.52117336 478.04678121 -203.22695923 478.1000824 C-204.00654318 478.10923678 -204.78612714 478.11839115 -205.58933485 478.12782294 C-219.47391234 478.16862536 -230.75403614 473.15927072 -241 464 C-250 454.8768997 -250 454.8768997 -250 452 C-250.66 452 -251.32 452 -252 452 C-252 451.34 -252 450.68 -252 450 C-252.66 450 -253.32 450 -254 450 C-255.74948837 447.97411676 -257.38313001 445.94086566 -259 443.8125 C-259.49346924 443.17175537 -259.98693848 442.53101074 -260.49536133 441.87084961 C-261.51567332 440.54524484 -262.53364236 439.21783357 -263.54931641 437.88867188 C-264.81373685 436.24249945 -266.09852489 434.61201111 -267.38671875 432.984375 C-279.07987632 418.13466046 -289.9700769 402.61165098 -299 386 C-300.18291896 384.01809191 -301.3703898 382.03889323 -302.5625 380.0625 C-306.53718224 373.26037335 -309.79549965 366.18720979 -313 359 C-313.52722656 357.83210938 -314.05445313 356.66421875 -314.59765625 355.4609375 C-330.33477696 319.80086346 -338.74913723 278.24053998 -324.76953125 240.6953125 C-323.58046368 237.7610596 -322.31707097 234.87867955 -321 232 C-320.71769531 231.33097656 -320.43539062 230.66195312 -320.14453125 229.97265625 C-315.54460494 219.75779641 -308.10204697 210.74961357 -300.25 202.875 C-299.71963135 202.34302002 -299.1892627 201.81104004 -298.64282227 201.26293945 C-295.32539946 198.03868814 -291.92173108 195.45401735 -288 193 C-288.73863281 192.61070312 -289.47726562 192.22140625 -290.23828125 191.8203125 C-301.33733738 185.69961319 -310.76622236 178.23124742 -317 167 C-317.58523438 165.97261719 -318.17046875 164.94523438 -318.7734375 163.88671875 C-327.95811412 146.77686758 -330.52705252 129.24644773 -325.3984375 110.32421875 C-322.32409511 100.16602167 -317.08759889 89.93522522 -310 82 C-309.44183594 81.3503125 -308.88367188 80.700625 -308.30859375 80.03125 C-296.23782929 66.92728859 -278.70067719 59.51970887 -261.07421875 58.7109375 C-251.68926696 58.46893393 -242.92809736 58.82328817 -234 62 C-233.00871094 62.3403125 -232.01742187 62.680625 -230.99609375 63.03125 C-220.00311303 67.18696174 -210.09399151 74.48632004 -202 83 C-202 83.66 -202 84.32 -202 85 C-201.34 85 -200.68 85 -200 85 C-187.15507238 101.22168695 -183.43392798 119.89740286 -185 140 C-186.87223285 153.9482931 -193.20134368 166.89158635 -202.984375 176.9140625 C-204.85034488 178.84512435 -206.44030018 180.81839455 -208 183 C-207.48727539 183.20044922 -206.97455078 183.40089844 -206.44628906 183.60742188 C-195.7952377 187.81442022 -186.23555738 192.14639808 -177 199 C-175.58420729 200.00123696 -174.16767935 201.00143617 -172.75 202 C-171.8425 202.66 -170.935 203.32 -170 204 C-169.88785156 203.43410156 -169.77570313 202.86820313 -169.66015625 202.28515625 C-166.33542523 190.77647194 -156.04713387 179.86004686 -148.078125 171.2890625 C-145.97995265 169.04918622 -145.97995265 169.04918622 -144.234375 166.6484375 C-138.89627534 160.32110958 -132.11563888 155.39213357 -125.4375 150.5625 C-124.28145264 149.72489136 -124.28145264 149.72489136 -123.10205078 148.87036133 C-116.07413976 143.87669379 -108.73752275 139.77746317 -101 136 C-101.41773682 135.6282666 -101.83547363 135.2565332 -102.26586914 134.87353516 C-119.64439458 119.31031864 -133.09915582 100.553322 -135.22265625 76.4753418 C-136.23299881 53.24835011 -130.84739257 32.24284617 -116 14 C-115.55527344 13.39285156 -115.11054688 12.78570312 -114.65234375 12.16015625 C-102.94286986 -3.05857893 -83.30713518 -12.39963125 -64.7578125 -15.55078125 C-41.65293278 -18.3127991 -19.26114027 -13.24711335 0 0 Z M-102.75 22.875 C-114.53763151 36.53039003 -120.98804913 54.13309333 -119.85888672 72.26611328 C-117.88785487 90.81485857 -109.53643729 107.19394602 -96 120 C-95.34 120 -94.68 120 -94 120 C-94 120.66 -94 121.32 -94 122 C-79.64332363 132.80327973 -60.93842917 139.22685854 -42.93457031 136.71142578 C-26.65323586 134.02907413 -12.77690311 127.79847253 -1 116 C-1 115.34 -1 114.68 -1 114 C-0.34 114 0.32 114 1 114 C13.16262511 100.5772831 18.70745168 82.56415132 18.28515625 64.69921875 C17.10957681 49.44889367 10.89457618 33.76652302 1 22 C0.34 22 -0.32 22 -1 22 C-1 21.34 -1 20.68 -1 20 C-10.0754795 9.57165399 -25.60074702 2.3574349 -39 0 C-64.54496906 -1.65404489 -84.86221915 3.85621137 -102.75 22.875 Z M-297 91 C-297 91.66 -297 92.32 -297 93 C-297.66 93 -298.32 93 -299 93 C-309.60460513 106.97404863 -313.71073849 121.66825599 -312 139 C-309.5402707 152.76454579 -301.81595246 165.24803847 -291 174 C-277.36784199 183.3109596 -262.35022878 187.61596114 -245.85449219 184.60888672 C-233.02061858 181.64516972 -221.34525624 175.40168042 -213 165 C-213 164.34 -213 163.68 -213 163 C-212.34 163 -211.68 163 -211 163 C-202.18791718 147.11410824 -198.70228179 131.93341053 -203 114 C-207.46504058 99.73717806 -217.66989216 87.1243513 -231 80.125 C-232.65475546 79.38927026 -234.32135233 78.67945263 -236 78 C-236.70898438 77.68160156 -237.41796875 77.36320312 -238.1484375 77.03515625 C-257.93349924 69.50294853 -282.30950128 76.63595681 -297 91 Z M109.21484375 95.96875 C99.38870705 108.23257279 97.20002693 121.70051495 98 137 C99.64317098 150.92587401 108.09522751 165.33980791 119 174 C131.422622 182.59192583 144.74457011 186.58059751 160 185 C176.5149007 181.96455096 189.81371895 174.69874687 199.875 161.0625 C208.47263456 147.99409547 210.93152696 133.05839564 208.25 117.6875 C205.1929652 104.62562406 196.94643603 91.1615018 185.69140625 83.69140625 C159.54839857 67.53647043 129.54109894 73.55204844 109.21484375 95.96875 Z M-114 162 C-114.99515625 162.65742188 -115.9903125 163.31484375 -117.015625 163.9921875 C-120.59725262 166.37683424 -120.59725262 166.37683424 -124 169 C-124 169.66 -124 170.32 -124 171 C-124.55558594 171.23332031 -125.11117187 171.46664062 -125.68359375 171.70703125 C-136.03385397 177.48432658 -143.44557536 189.45536941 -150 199 C-150.64839844 199.93714844 -151.29679688 200.87429688 -151.96484375 201.83984375 C-157.0486081 209.50583762 -161.00624223 217.73240274 -165 226 C-169.68760449 225.53207513 -171.65265823 223.77978038 -174.9375 220.5 C-194.17740381 202.37507714 -217.8062694 194.39586062 -243.890625 194.7265625 C-260.988722 195.25596403 -276.39156158 202.65019729 -289 214 C-289.68449219 214.58007812 -290.36898437 215.16015625 -291.07421875 215.7578125 C-306.01037198 229.31479245 -313.98243129 252.02537919 -315.1640625 271.73681641 C-315.95861345 291.66349218 -313.35706485 310.14014404 -307 329 C-306.74734375 329.75249023 -306.4946875 330.50498047 -306.234375 331.28027344 C-301.07862586 346.40001325 -294.85569419 361.34519583 -286.3203125 374.89453125 C-285.00272494 376.99565461 -283.8069185 379.13260396 -282.625 381.3125 C-277.07990617 391.35744632 -270.87793232 400.82545707 -264 410 C-263.05900081 411.28450105 -262.11895883 412.56970368 -261.1796875 413.85546875 C-255.89022184 421.0552331 -250.49210487 427.89112622 -244.375 434.41015625 C-241.90205266 437.10680771 -239.60356216 439.89778241 -237.3125 442.75 C-229.55723374 452.28449547 -222.3451908 459.20392039 -210 462 C-198.65978717 462.85202237 -187.06175094 462.0389439 -175.71484375 461.546875 C-164.51754133 461.0912518 -153.32058909 460.78788775 -142.1171875 460.53515625 C-141.27741426 460.51617971 -140.43764103 460.49720318 -139.57242012 460.4776516 C-135.17460775 460.3787063 -130.77676477 460.28119642 -126.37890625 460.18432617 C-98.91486229 459.5783348 -71.45581661 458.90901272 -44 458 C-13.9668103 457.00623943 16.07111399 456.30567068 46.11311531 455.63897133 C52.7740318 455.49030768 59.43468777 455.33221249 66.09521294 455.16695213 C70.5637342 455.05656973 75.03227937 454.95730836 79.50127316 454.86820507 C82.77846577 454.79938886 86.05519641 454.71284447 89.33203125 454.62890625 C90.46839523 454.60996811 91.60475922 454.59102997 92.77555847 454.57151794 C103.93151797 454.25051923 112.66442016 452.51466063 120.79296875 444.578125 C123.63493837 441.25830208 125.58646775 437.84067908 127.515625 433.93359375 C129.12370842 430.75551309 130.95997536 427.81493205 132.875 424.8125 C136.99906685 418.17033563 140.45802855 411.30535128 143.87548828 404.27978516 C145.06704343 401.86407912 146.29328989 399.46847832 147.52734375 397.07421875 C171.0408293 351.27894715 198.21180579 291.14991396 182.25 238.875 C175.70731103 220.63695491 163.42263169 206.12796164 146.01879883 197.66308594 C137.26165942 193.59114452 128.6425044 191.49528112 119 191 C118.26910156 190.95875 117.53820312 190.9175 116.78515625 190.875 C88.35854528 190.09752004 61.59695046 200.1215172 39.3046875 217.43359375 C37.11783887 218.91990951 35.5828675 219.57745716 33 220 C32.92007812 219.21882813 32.84015625 218.43765625 32.7578125 217.6328125 C31.7401863 212.75450134 29.86000791 208.43223379 27.875 203.875 C27.46830078 202.93865723 27.06160156 202.00231445 26.64257812 201.03759766 C21.52089106 189.43339851 15.46002371 179.53407889 7 170 C6.35160156 169.2678125 5.70320313 168.535625 5.03515625 167.78125 C-8.63709144 153.2422545 -30.03107541 144.86860259 -49.734375 143.796875 C-73.09659263 143.33382431 -94.63592687 148.65449014 -114 162 Z " fill="#101010" transform="translate(570,237)"/>
<path d="M0 0 C14.49605395 12.60156232 21.70628033 29.60330152 26.1875 47.8125 C26.6515625 49.69001953 26.6515625 49.69001953 27.125 51.60546875 C29.70130343 63.55803034 29.9112267 75.62594737 30.1875 87.8125 C30.56447021 87.40523682 30.94144043 86.99797363 31.32983398 86.57836914 C35.59766827 81.97269441 39.88699058 77.38766381 44.1875 72.8125 C45.00476563 71.93851562 45.82203125 71.06453125 46.6640625 70.1640625 C65.45985707 50.66430558 93.61575264 33.22183456 121.28198242 32.46899414 C136.4841261 32.29284427 149.29050655 34.63714939 161.1875 44.8125 C162.15236328 45.59560547 162.15236328 45.59560547 163.13671875 46.39453125 C168.53025973 51.20308948 171.31219279 57.27852014 174.1875 63.8125 C174.54972656 64.62847656 174.91195313 65.44445312 175.28515625 66.28515625 C187.2777834 99.8748955 170.06360489 142.01424912 157.1875 172.8125 C156.85492187 173.61300781 156.52234375 174.41351562 156.1796875 175.23828125 C151.27787525 186.99910417 146.07733556 198.51438775 140.1875 209.8125 C139.68597412 210.78437256 139.68597412 210.78437256 139.17431641 211.77587891 C134.39485019 221.02887111 129.38617115 230.1554709 124.3125 239.25 C123.75280518 240.26392822 123.19311035 241.27785645 122.61645508 242.32250977 C122.08560303 243.26666748 121.55475098 244.2108252 121.0078125 245.18359375 C120.53617676 246.02849365 120.06454102 246.87339355 119.57861328 247.74389648 C118.1875 249.8125 118.1875 249.8125 115.1875 251.8125 C113.15211487 252.11547852 113.15211487 252.11547852 110.76391602 252.19140625 C109.39402527 252.24167969 109.39402527 252.24167969 107.99645996 252.29296875 C106.98829224 252.32003906 105.98012451 252.34710937 104.94140625 252.375 C103.86580444 252.41109375 102.79020264 252.4471875 101.68200684 252.484375 C98.03824393 252.60350172 94.39421416 252.70815315 90.75 252.8125 C88.13922678 252.89406022 85.52846865 252.97610465 82.91772461 253.05859375 C58.20966479 253.82547699 33.49519801 254.37323143 8.78186035 254.9375 C-13.65028682 255.44976812 -36.07545961 256.02756506 -58.5 256.8125 C-79.35034999 257.53827768 -100.20121692 258.21094277 -121.05581665 258.80175781 C-124.15011 258.88953402 -127.2443178 258.97966533 -130.33847046 259.07226562 C-138.27345969 259.30858384 -146.2080499 259.51829425 -154.14512157 259.67131424 C-158.00014103 259.74696275 -161.85363711 259.84075059 -165.70751953 259.96179199 C-169.84147266 260.09101582 -173.9749349 260.18436889 -178.11029053 260.25484848 C-179.68323382 260.28765328 -181.25597757 260.33267249 -182.82818604 260.39087296 C-196.52757061 260.8848527 -196.52757061 260.8848527 -201.6328125 256.49658203 C-202.73259272 255.30414176 -203.79577569 254.07650238 -204.8125 252.8125 C-205.87334146 251.66513097 -206.9356352 250.51910133 -208 249.375 C-209.28255801 247.86404125 -210.5511093 246.34117423 -211.8125 244.8125 C-212.27817383 244.24853516 -212.74384766 243.68457031 -213.22363281 243.10351562 C-227.27435315 226.04630928 -240.28391537 208.68536319 -251.8125 189.8125 C-252.44414062 188.77867187 -253.07578125 187.74484375 -253.7265625 186.6796875 C-255.47445433 183.75057197 -257.1563139 180.79439469 -258.8125 177.8125 C-259.43640625 176.70777344 -260.0603125 175.60304688 -260.703125 174.46484375 C-275.79522993 146.70494822 -285.82244831 109.87463388 -278.25 78.4375 C-275.30680147 69.42984614 -271.21992824 59.87642703 -264.8125 52.8125 C-264.1525 52.8125 -263.4925 52.8125 -262.8125 52.8125 C-262.8125 52.1525 -262.8125 51.4925 -262.8125 50.8125 C-257.07261677 45.18599718 -250.22965939 41.70356797 -242.8125 38.8125 C-241.94882812 38.44640625 -241.08515625 38.0803125 -240.1953125 37.703125 C-223.5913613 33.33164593 -206.27065529 37.01428747 -191.5625 45.0625 C-181.41337733 51.36148632 -166.67599121 61.03407273 -162.8125 72.8125 C-162.1525 72.8125 -161.4925 72.8125 -160.8125 72.8125 C-159.515625 74.49316406 -159.515625 74.49316406 -158.0625 76.828125 C-157.5365625 77.66730469 -157.010625 78.50648438 -156.46875 79.37109375 C-155.9221875 80.25925781 -155.375625 81.14742188 -154.8125 82.0625 C-154.2659375 82.93519531 -153.719375 83.80789063 -153.15625 84.70703125 C-149.06800345 91.2702702 -149.06800345 91.2702702 -147.765625 94.03417969 C-146.93722039 95.99058733 -146.93722039 95.99058733 -144.8125 96.8125 C-144.67714844 96.04550781 -144.54179687 95.27851562 -144.40234375 94.48828125 C-139.93539152 71.45806645 -131.32249685 49.03290789 -117.8125 29.8125 C-117.10351562 28.78640625 -116.39453125 27.7603125 -115.6640625 26.703125 C-100.78465203 5.96863965 -80.29427709 -9.1556705 -54.75927734 -13.54003906 C-34.54310576 -16.26022805 -16.32462786 -12.52767403 0 0 Z M-102.69921875 34.859375 C-121.58679027 61.25309786 -131.10295665 92.2440364 -133.0793457 124.38574219 C-133.14726318 125.41860352 -133.21518066 126.45146484 -133.28515625 127.515625 C-133.33937744 128.44020508 -133.39359863 129.36478516 -133.44946289 130.31738281 C-133.82999745 132.93275821 -134.32636849 134.62811768 -135.8125 136.8125 C-139.1875 137.8125 -139.1875 137.8125 -142.8125 137.8125 C-147.21754328 134.59940961 -148.64539638 129.96095301 -150.5625 125.0625 C-156.093665 111.48281412 -162.19291736 98.73996676 -170.8125 86.8125 C-171.95332031 85.20761719 -171.95332031 85.20761719 -173.1171875 83.5703125 C-182.30515177 70.93918557 -192.7853986 61.73276284 -206.8125 54.8125 C-207.96298828 54.24015625 -207.96298828 54.24015625 -209.13671875 53.65625 C-217.90916073 50.04701673 -230.61939805 50.44682657 -239.4453125 53.65625 C-250.08587777 58.85362181 -256.90713222 66.11816208 -261.08984375 77.1953125 C-270.85273403 107.70000171 -260.28414311 140.30484327 -246.421875 167.921875 C-238.89888441 182.31625857 -230.1548107 196.08714926 -220.24267578 208.94970703 C-218.66466418 211.00505502 -217.1110788 213.07765504 -215.55859375 215.15234375 C-210.23380587 222.23635814 -204.87320364 229.1617092 -198.8125 235.63671875 C-196.8125 237.8125 -196.8125 237.8125 -194.95825195 240.91992188 C-193.14862602 243.0552756 -192.16544928 243.73825137 -189.39877319 244.32026672 C-186.07538097 244.46282581 -182.80497792 244.39266325 -179.48046875 244.26953125 C-178.13043734 244.24176829 -176.780348 244.21672173 -175.43022156 244.19404602 C-172.32921476 244.13552675 -169.22951786 244.05617335 -166.1293335 243.96392822 C-160.29865762 243.79209235 -154.46721927 243.67458253 -148.63525391 243.55615234 C-135.43322036 243.27997006 -122.2329394 242.9442794 -109.03250122 242.60112762 C-105.08501224 242.4989651 -101.13748519 242.39842203 -97.18994141 242.29840088 C-57.2547867 241.28637593 -17.32306432 240.16874186 22.60504436 238.9066 C27.35123683 238.75666554 32.0974747 238.6082257 36.84375 238.4609375 C37.74879084 238.43284563 38.65383167 238.40475376 39.58629799 238.37581062 C62.1160717 237.68283262 84.65137688 237.24054521 107.1875 236.8125 C123.68971089 206.8627252 139.28259375 176.90718546 151.1875 144.8125 C151.46110352 144.0812793 151.73470703 143.35005859 152.01660156 142.59667969 C159.85241753 121.36385723 168.01350578 92.65753552 160.34765625 70.23046875 C155.45187925 60.02681232 148.82653203 53.72997107 138.29296875 49.70703125 C121.3808635 44.83549401 103.78793481 49.63513841 88.703125 57.66796875 C64.05527142 72.43899105 42.20063714 93.72906048 27.0546875 118.203125 C26.03761719 119.83507812 26.03761719 119.83507812 25 121.5 C24.11248047 122.99080078 24.11248047 122.99080078 23.20703125 124.51171875 C21.1875 126.8125 21.1875 126.8125 18.19921875 127.89453125 C15.1875 127.8125 15.1875 127.8125 12.80078125 126.3984375 C10.51990562 122.74240924 10.95387268 119.5567622 11.375 115.4375 C11.43236328 114.695 11.48972656 113.9525 11.54882812 113.1875 C11.80201749 110.10566817 12.13355469 107.10280043 12.69897461 104.06005859 C13.27017029 100.26293468 13.40455065 96.51882144 13.4609375 92.6875 C13.47966164 91.5234539 13.47966164 91.5234539 13.49876404 90.33589172 C13.76862909 69.5313839 13.91806805 48.42237087 3.1875 29.8125 C2.41792969 28.43771484 2.41792969 28.43771484 1.6328125 27.03515625 C-6.26810789 13.76379457 -15.9795618 5.81267189 -30.96044922 2.0012207 C-59.79932226 -4.58226368 -85.60001392 12.97739441 -102.69921875 34.859375 Z " fill="#07080A" transform="translate(556.8125,417.1875)"/>
<path d="M0 0 C8.79596133 9.17199685 12.83463975 20.24221812 13.2265625 32.81640625 C12.95484594 45.41126777 8.86124917 57.0569772 0.1640625 66.31640625 C-10.48298843 76.21309359 -23.1849221 80.43944254 -37.546875 80.27734375 C-49.88389246 79.32415256 -60.88643589 73.71531702 -69.3984375 64.81640625 C-78.83432778 53.4429615 -82.42275066 40.57516972 -81.0859375 26.00390625 C-79.38023491 17.55292522 -76.26641288 10.84213375 -71.0859375 4.00390625 C-70.4259375 3.01390625 -69.7659375 2.02390625 -69.0859375 1.00390625 C-68.4259375 1.00390625 -67.7659375 1.00390625 -67.0859375 1.00390625 C-66.71275391 0.10671875 -66.71275391 0.10671875 -66.33203125 -0.80859375 C-62.32316597 -7.8461002 -52.43449942 -10.88393224 -45.0859375 -12.99609375 C-28.46788602 -16.5376457 -12.14198568 -11.61901626 0 0 Z " fill="#208DEB" transform="translate(553.0859375,271.99609375)"/>
<path d="M0 0 C8.49257765 7.0677432 13.08854002 16.31017995 14.3515625 27.26953125 C14.07790378 35.14577137 12.8799293 42.69839962 8.3515625 49.26953125 C7.89136719 49.945 7.43117188 50.62046875 6.95703125 51.31640625 C1.82365229 57.96107196 -5.48528667 62.18533569 -13.69921875 63.91015625 C-23.91452196 65.15493492 -33.40338154 64.42651635 -42.1953125 58.57421875 C-49.40877358 52.59527618 -55.00999041 44.60867966 -56.6484375 35.26953125 C-57.60152311 23.91914808 -54.3966723 15.88021631 -48.6484375 6.26953125 C-47.9884375 6.26953125 -47.3284375 6.26953125 -46.6484375 6.26953125 C-46.41382813 5.67398437 -46.17921875 5.0784375 -45.9375 4.46484375 C-42.99685349 -0.54316636 -36.1664406 -3.52416351 -30.7109375 -5.10546875 C-20.17148375 -7.12904387 -9.12010638 -5.95900756 0 0 Z " fill="#218EEB" transform="translate(744.6484375,337.73046875)"/>
<path d="M0 0 C0.53367187 0.46277344 1.06734375 0.92554688 1.6171875 1.40234375 C1.6171875 2.06234375 1.6171875 2.72234375 1.6171875 3.40234375 C2.2771875 3.40234375 2.9371875 3.40234375 3.6171875 3.40234375 C5.0546875 5.37890625 5.0546875 5.37890625 6.6171875 8.02734375 C7.1328125 8.88585937 7.6484375 9.744375 8.1796875 10.62890625 C12.70307836 19.35610057 13.28021018 29.55617942 10.6015625 38.97265625 C8.76070855 43.48607527 6.84261856 47.70131294 3.6171875 51.40234375 C2.9571875 51.40234375 2.2971875 51.40234375 1.6171875 51.40234375 C1.40835938 51.99660156 1.19953125 52.59085937 0.984375 53.203125 C-0.90426202 56.24113255 -3.05098771 57.06483783 -6.2578125 58.58984375 C-7.30710937 59.09902344 -8.35640625 59.60820312 -9.4375 60.1328125 C-17.79932324 63.73704666 -27.63811265 63.66083643 -36.2578125 60.83984375 C-45.37463569 57.02443316 -52.30615018 49.5556684 -56.6953125 40.77734375 C-59.74834052 30.23051969 -59.18241056 19.83104509 -54.1640625 10.01953125 C-49.26869826 1.99657318 -42.23749575 -3.53257359 -33.3828125 -6.59765625 C-20.98948968 -9.48739655 -10.39975934 -7.07111665 0 0 Z " fill="#218EEB" transform="translate(336.3828125,339.59765625)"/>
<path d="M0 0 C0.66 0.33 1.32 0.66 2 1 C-3.94 6.94 -9.88 12.88 -16 19 C-16 14.06349214 -12.32693536 11.4052871 -9 8 C-6.06043996 5.26044168 -3.05755103 2.60689158 0 0 Z " fill="#5C5C5D" transform="translate(272,308)"/>
<path d="M0 0 C0.99 0.33 1.98 0.66 3 1 C-1.62 5.62 -6.24 10.24 -11 15 C-11.66 14.34 -12.32 13.68 -13 13 C-8.71 8.71 -4.42 4.42 0 0 Z " fill="#1E7FD5" transform="translate(617,496)"/>
<path d="M0 0 C0.99 0.33 1.98 0.66 3 1 C-1 5 -5 9 -9 13 C-9 9.40142046 -8.04169485 7.90548882 -6 5 C-5.34 5 -4.68 5 -4 5 C-3.566875 4.0409375 -3.566875 4.0409375 -3.125 3.0625 C-2 1 -2 1 0 0 Z " fill="#449BE3" transform="translate(702,339)"/>
<path d="M0 0 C0.66 0.33 1.32 0.66 2 1 C0.90653119 2.34212062 -0.2001575 3.67347975 -1.3125 5 C-2.23482422 6.11375 -2.23482422 6.11375 -3.17578125 7.25 C-5 9 -5 9 -8 9 C-6.4169423 4.7257442 -3.49431596 2.73468206 0 0 Z " fill="#52A7EB" transform="translate(293,338)"/>
<path d="M0 0 C0 3 0 3 -1.96875 5.04296875 C-2.8040625 5.75066406 -3.639375 6.45835937 -4.5 7.1875 C-5.3353125 7.90292969 -6.170625 8.61835938 -7.03125 9.35546875 C-7.6809375 9.89816406 -8.330625 10.44085938 -9 11 C-9.66 10.67 -10.32 10.34 -11 10 C-3.70159453 2.51708428 -3.70159453 2.51708428 0 0 Z " fill="#207BCB" transform="translate(473,433)"/>
<path d="M0 0 C0.66 0.33 1.32 0.66 2 1 C-1.3 4.3 -4.6 7.6 -8 11 C-8.66 10.67 -9.32 10.34 -10 10 C-6.92118304 6.12948725 -3.99926986 2.97088618 0 0 Z " fill="#5A5B5B" transform="translate(679,311)"/>
<path d="M0 0 C0.66 0 1.32 0 2 0 C1.1875 2.4375 1.1875 2.4375 0 5 C-0.99 5.33 -1.98 5.66 -3 6 C-3 6.99 -3 7.98 -3 9 C-3.99 9.33 -4.98 9.66 -6 10 C-4.63312778 6.01328937 -2.84804907 3.11505367 0 0 Z " fill="#5DACEB" transform="translate(484,273)"/>
<path d="M0 0 C0.99 0.33 1.98 0.66 3 1 C-0.465 3.97 -0.465 3.97 -4 7 C-3.6875 4.625 -3.6875 4.625 -3 2 C-2.01 1.34 -1.02 0.68 0 0 Z " fill="#399BE4" transform="translate(490,268)"/>
<path d="" fill="#FFFFFF" transform="translate(0,0)"/>
<path d="" fill="#FFFFFF" transform="translate(0,0)"/>
</svg>
